<?xml version="1.0" encoding="UTF-8"?>
<svg id="_레이어_1" data-name="레이어 1" xmlns="http://www.w3.org/2000/svg" viewBox="0 0 512 512">
  <defs>
    <style>
      .cls-1 {
        stroke-width: 0px;
      }
    </style>
  </defs>
  <polygon class="cls-1" points="161.13 189.85 25.42 208.99 12.65 226.01 27.97 223.88 35.2 285.99 56.05 323.43 195.16 294.93 201.12 294.5 201.12 298.76 337.26 430.64 466.16 389.37 468.29 375.33 499.35 365.12 499.35 360.87 493.81 357.89 495.09 347.25 472.97 334.07 481.48 262.59 304.92 177.93 305.78 144.75 315.56 143.05 288.76 89.02 233.88 93.7 234.3 81.36 207.5 83.06 199.84 96.25 169.64 98.8 150.92 134.97 158.15 133.69 161.13 189.85"/>
</svg>