{
    "asset" : {
        "generator" : "Khronos glTF Blender I/O v3.3.27",
        "version" : "2.0"
    },
    "scene" : 0,
    "scenes" : [
        {
            "name" : "Scene",
            "nodes" : [
                0,
                1,
                2,
                3,
                4,
                5,
                6
            ]
        }
    ],
    "nodes" : [
        {
            "mesh" : 0,
            "name" : "drawer",
            "rotation" : [
                0.5,
                -0.5,
                0.5000000596046448,
                0.5
            ],
            "scale" : [
                0.003740942105650902,
                0.003740942105650902,
                0.003740942105650902
            ],
            "translation" : [
                -3.2566189765930176,
                1.9143487215042114,
                -3.8622305393218994
            ]
        },
        {
            "mesh" : 1,
            "name" : "tv",
            "rotation" : [
                0.5,
                -0.5,
                0.5,
                0.5
            ],
            "scale" : [
                1.043278455734253,
                1.043278455734253,
                1.0432785749435425
            ],
            "translation" : [
                -3.234163284301758,
                2.509873390197754,
                -3.846346139907837
            ]
        },
        {
            "mesh" : 2,
            "name" : "Object_6",
            "rotation" : [
                0,
                0.553737998008728,
                0,
                0.8326910138130188
            ],
            "scale" : [
                0.3782880902290344,
                0.4007290005683899,
                0.4007289409637451
            ],
            "translation" : [
                -4.57012939453125,
                2.0607666969299316,
                -4.136092185974121
            ]
        },
        {
            "mesh" : 3,
            "name" : "Object_8",
            "rotation" : [
                0,
                0.5537379384040833,
                0,
                0.8326910138130188
            ],
            "scale" : [
                0.34929919242858887,
                0.4130258858203888,
                0.37002032995224
            ],
            "translation" : [
                -4.555647373199463,
                2.1534650325775146,
                -4.130018711090088
            ]
        },
        {
            "mesh" : 4,
            "name" : "Object_4",
            "rotation" : [
                0,
                0.5537379384040833,
                0,
                0.8326910138130188
            ],
            "scale" : [
                0.3821888566017151,
                0.4048611521720886,
                0.40486106276512146
            ],
            "translation" : [
                -4.57012939453125,
                2.0607666969299316,
                -4.136092185974121
            ]
        },
        {
            "mesh" : 5,
            "name" : "Object_10",
            "rotation" : [
                0,
                0.553737998008728,
                0,
                0.8326910138130188
            ],
            "scale" : [
                0.40486106276512146,
                0.4048611521720886,
                0.40486106276512146
            ],
            "translation" : [
                -4.57012939453125,
                2.0678350925445557,
                -4.136092185974121
            ]
        },
        {
            "mesh" : 6,
            "name" : "Object_12",
            "rotation" : [
                0.4578251540660858,
                0.4705837666988373,
                -0.3597709536552429,
                0.6629568934440613
            ],
            "scale" : [
                0.16179275512695312,
                0.11911944299936295,
                0.14345872402191162
            ],
            "translation" : [
                -4.747751235961914,
                2.3351986408233643,
                -4.213382244110107
            ]
        }
    ],
    "materials" : [
        {
            "doubleSided" : true,
            "name" : "Material.004",
            "pbrMetallicRoughness" : {
                "baseColorFactor" : [
                    0.5669995546340942,
                    0.8000000715255737,
                    0.6069194674491882,
                    1
                ],
                "metallicFactor" : 0,
                "roughnessFactor" : 0.5
            }
        },
        {
            "doubleSided" : true,
            "name" : "black plastic",
            "pbrMetallicRoughness" : {}
        },
        {
            "doubleSided" : true,
            "name" : "tv screen",
            "pbrMetallicRoughness" : {}
        },
        {
            "doubleSided" : true,
            "name" : "metal",
            "pbrMetallicRoughness" : {}
        },
        {
            "doubleSided" : true,
            "name" : "Material.051",
            "pbrMetallicRoughness" : {
                "baseColorFactor" : [
                    0.002265791641548276,
                    0.08091015368700027,
                    0.05970997363328934,
                    1
                ],
                "metallicFactor" : 0
            }
        },
        {
            "doubleSided" : true,
            "name" : "Material.052",
            "pbrMetallicRoughness" : {
                "baseColorFactor" : [
                    0.800000011920929,
                    0.800000011920929,
                    0.800000011920929,
                    1
                ],
                "roughnessFactor" : 0
            }
        },
        {
            "doubleSided" : true,
            "name" : "material_0.001",
            "pbrMetallicRoughness" : {
                "metallicFactor" : 0,
                "roughnessFactor" : 0.6000000238418579
            }
        }
    ],
    "meshes" : [
        {
            "name" : "drawer",
            "primitives" : [
                {
                    "attributes" : {
                        "POSITION" : 0,
                        "NORMAL" : 1,
                        "TEXCOORD_0" : 2
                    },
                    "indices" : 3,
                    "material" : 0
                }
            ]
        },
        {
            "name" : "Plane.003",
            "primitives" : [
                {
                    "attributes" : {
                        "POSITION" : 4,
                        "NORMAL" : 5,
                        "TEXCOORD_0" : 6
                    },
                    "indices" : 7,
                    "material" : 1
                },
                {
                    "attributes" : {
                        "POSITION" : 8,
                        "NORMAL" : 9,
                        "TEXCOORD_0" : 10
                    },
                    "indices" : 11,
                    "material" : 2
                },
                {
                    "attributes" : {
                        "POSITION" : 12,
                        "NORMAL" : 13,
                        "TEXCOORD_0" : 14
                    },
                    "indices" : 15,
                    "material" : 3
                }
            ]
        },
        {
            "name" : "Object_1",
            "primitives" : [
                {
                    "attributes" : {
                        "POSITION" : 16,
                        "NORMAL" : 17,
                        "TEXCOORD_0" : 18
                    },
                    "indices" : 19,
                    "material" : 0
                }
            ]
        },
        {
            "name" : "Object_2",
            "primitives" : [
                {
                    "attributes" : {
                        "POSITION" : 20,
                        "NORMAL" : 21,
                        "TEXCOORD_0" : 22
                    },
                    "indices" : 23,
                    "material" : 4
                }
            ]
        },
        {
            "name" : "Object_0",
            "primitives" : [
                {
                    "attributes" : {
                        "POSITION" : 24,
                        "NORMAL" : 25,
                        "TEXCOORD_0" : 26
                    },
                    "indices" : 27,
                    "material" : 0
                }
            ]
        },
        {
            "name" : "Object_3",
            "primitives" : [
                {
                    "attributes" : {
                        "POSITION" : 28,
                        "NORMAL" : 29,
                        "TEXCOORD_0" : 30
                    },
                    "indices" : 31,
                    "material" : 5
                }
            ]
        },
        {
            "name" : "Object_4",
            "primitives" : [
                {
                    "attributes" : {
                        "POSITION" : 32,
                        "NORMAL" : 33,
                        "TEXCOORD_0" : 34
                    },
                    "indices" : 35,
                    "material" : 6
                }
            ]
        }
    ],
    "accessors" : [
        {
            "bufferView" : 0,
            "componentType" : 5126,
            "count" : 3341,
            "max" : [
                263.3328857421875,
                33.609901428222656,
                0
            ],
            "min" : [
                -253.19949340820312,
                -31.258899688720703,
                -67.91690063476562
            ],
            "type" : "VEC3"
        },
        {
            "bufferView" : 1,
            "componentType" : 5126,
            "count" : 3341,
            "type" : "VEC3"
        },
        {
            "bufferView" : 2,
            "componentType" : 5126,
            "count" : 3341,
            "type" : "VEC2"
        },
        {
            "bufferView" : 3,
            "componentType" : 5123,
            "count" : 7347,
            "type" : "SCALAR"
        },
        {
            "bufferView" : 4,
            "componentType" : 5126,
            "count" : 282,
            "max" : [
                0.44506046175956726,
                0.08948011696338654,
                0.32965222001075745
            ],
            "min" : [
                -0.44506046175956726,
                -0.049630969762802124,
                -0.2498321235179901
            ],
            "type" : "VEC3"
        },
        {
            "bufferView" : 5,
            "componentType" : 5126,
            "count" : 282,
            "type" : "VEC3"
        },
        {
            "bufferView" : 6,
            "componentType" : 5126,
            "count" : 282,
            "type" : "VEC2"
        },
        {
            "bufferView" : 7,
            "componentType" : 5123,
            "count" : 1392,
            "type" : "SCALAR"
        },
        {
            "bufferView" : 8,
            "componentType" : 5126,
            "count" : 28,
            "max" : [
                0.42478930950164795,
                0.07983484864234924,
                0.2321518063545227
            ],
            "min" : [
                -0.42478930950164795,
                0.011296980082988739,
                -0.2321518063545227
            ],
            "type" : "VEC3"
        },
        {
            "bufferView" : 9,
            "componentType" : 5126,
            "count" : 28,
            "type" : "VEC3"
        },
        {
            "bufferView" : 10,
            "componentType" : 5126,
            "count" : 28,
            "type" : "VEC2"
        },
        {
            "bufferView" : 11,
            "componentType" : 5123,
            "count" : 108,
            "type" : "SCALAR"
        },
        {
            "bufferView" : 12,
            "componentType" : 5126,
            "count" : 80,
            "max" : [
                0.44506046175956726,
                0.08948011696338654,
                0.32965222001075745
            ],
            "min" : [
                -0.44506046175956726,
                -0.04536190629005432,
                -0.2498321235179901
            ],
            "type" : "VEC3"
        },
        {
            "bufferView" : 13,
            "componentType" : 5126,
            "count" : 80,
            "type" : "VEC3"
        },
        {
            "bufferView" : 14,
            "componentType" : 5126,
            "count" : 80,
            "type" : "VEC2"
        },
        {
            "bufferView" : 15,
            "componentType" : 5123,
            "count" : 252,
            "type" : "SCALAR"
        },
        {
            "bufferView" : 16,
            "componentType" : 5126,
            "count" : 17258,
            "max" : [
                0.8932960629463196,
                0.9692807793617249,
                0.6860480904579163
            ],
            "min" : [
                -0.8932960629463196,
                0.11660069227218628,
                -0.8932967782020569
            ],
            "type" : "VEC3"
        },
        {
            "bufferView" : 17,
            "componentType" : 5126,
            "count" : 17258,
            "type" : "VEC3"
        },
        {
            "bufferView" : 18,
            "componentType" : 5126,
            "count" : 17258,
            "type" : "VEC2"
        },
        {
            "bufferView" : 19,
            "componentType" : 5123,
            "count" : 78144,
            "type" : "SCALAR"
        },
        {
            "bufferView" : 20,
            "componentType" : 5126,
            "count" : 1960,
            "max" : [
                0.7689379453659058,
                0.15194176137447357,
                0.7173152565956116
            ],
            "min" : [
                -0.7689379453659058,
                -0.15194176137447357,
                -0.7689379453659058
            ],
            "type" : "VEC3"
        },
        {
            "bufferView" : 21,
            "componentType" : 5126,
            "count" : 1960,
            "type" : "VEC3"
        },
        {
            "bufferView" : 22,
            "componentType" : 5126,
            "count" : 1960,
            "type" : "VEC2"
        },
        {
            "bufferView" : 23,
            "componentType" : 5123,
            "count" : 9216,
            "type" : "SCALAR"
        },
        {
            "bufferView" : 24,
            "componentType" : 5126,
            "count" : 1235,
            "max" : [
                0.8958335518836975,
                0.8473169803619385,
                0.7054800391197205
            ],
            "min" : [
                -0.8958335518836975,
                0.016972269862890244,
                -0.8958335518836975
            ],
            "type" : "VEC3"
        },
        {
            "bufferView" : 25,
            "componentType" : 5126,
            "count" : 1235,
            "type" : "VEC3"
        },
        {
            "bufferView" : 26,
            "componentType" : 5126,
            "count" : 1235,
            "type" : "VEC2"
        },
        {
            "bufferView" : 27,
            "componentType" : 5123,
            "count" : 5664,
            "type" : "SCALAR"
        },
        {
            "bufferView" : 28,
            "componentType" : 5126,
            "count" : 416,
            "max" : [
                0.5977823138237,
                0.04462599754333496,
                0.6753613352775574
            ],
            "min" : [
                -0.5977823138237,
                -0.3899936079978943,
                -0.6125093102455139
            ],
            "type" : "VEC3"
        },
        {
            "bufferView" : 29,
            "componentType" : 5126,
            "count" : 416,
            "type" : "VEC3"
        },
        {
            "bufferView" : 30,
            "componentType" : 5126,
            "count" : 416,
            "type" : "VEC2"
        },
        {
            "bufferView" : 31,
            "componentType" : 5123,
            "count" : 768,
            "type" : "SCALAR"
        },
        {
            "bufferView" : 32,
            "componentType" : 5126,
            "count" : 6150,
            "max" : [
                0.9429412484169006,
                0.552000105381012,
                0.9446173906326294
            ],
            "min" : [
                -0.9422706365585327,
                -0.49358096718788147,
                -0.9442049264907837
            ],
            "type" : "VEC3"
        },
        {
            "bufferView" : 33,
            "componentType" : 5126,
            "count" : 6150,
            "type" : "VEC3"
        },
        {
            "bufferView" : 34,
            "componentType" : 5126,
            "count" : 6150,
            "type" : "VEC2"
        },
        {
            "bufferView" : 35,
            "componentType" : 5123,
            "count" : 29232,
            "type" : "SCALAR"
        }
    ],
    "bufferViews" : [
        {
            "buffer" : 0,
            "byteLength" : 40092,
            "byteOffset" : 0,
            "target" : 34962
        },
        {
            "buffer" : 0,
            "byteLength" : 40092,
            "byteOffset" : 40092,
            "target" : 34962
        },
        {
            "buffer" : 0,
            "byteLength" : 26728,
            "byteOffset" : 80184,
            "target" : 34962
        },
        {
            "buffer" : 0,
            "byteLength" : 14694,
            "byteOffset" : 106912,
            "target" : 34963
        },
        {
            "buffer" : 0,
            "byteLength" : 3384,
            "byteOffset" : 121608,
            "target" : 34962
        },
        {
            "buffer" : 0,
            "byteLength" : 3384,
            "byteOffset" : 124992,
            "target" : 34962
        },
        {
            "buffer" : 0,
            "byteLength" : 2256,
            "byteOffset" : 128376,
            "target" : 34962
        },
        {
            "buffer" : 0,
            "byteLength" : 2784,
            "byteOffset" : 130632,
            "target" : 34963
        },
        {
            "buffer" : 0,
            "byteLength" : 336,
            "byteOffset" : 133416,
            "target" : 34962
        },
        {
            "buffer" : 0,
            "byteLength" : 336,
            "byteOffset" : 133752,
            "target" : 34962
        },
        {
            "buffer" : 0,
            "byteLength" : 224,
            "byteOffset" : 134088,
            "target" : 34962
        },
        {
            "buffer" : 0,
            "byteLength" : 216,
            "byteOffset" : 134312,
            "target" : 34963
        },
        {
            "buffer" : 0,
            "byteLength" : 960,
            "byteOffset" : 134528,
            "target" : 34962
        },
        {
            "buffer" : 0,
            "byteLength" : 960,
            "byteOffset" : 135488,
            "target" : 34962
        },
        {
            "buffer" : 0,
            "byteLength" : 640,
            "byteOffset" : 136448,
            "target" : 34962
        },
        {
            "buffer" : 0,
            "byteLength" : 504,
            "byteOffset" : 137088,
            "target" : 34963
        },
        {
            "buffer" : 0,
            "byteLength" : 207096,
            "byteOffset" : 137592,
            "target" : 34962
        },
        {
            "buffer" : 0,
            "byteLength" : 207096,
            "byteOffset" : 344688,
            "target" : 34962
        },
        {
            "buffer" : 0,
            "byteLength" : 138064,
            "byteOffset" : 551784,
            "target" : 34962
        },
        {
            "buffer" : 0,
            "byteLength" : 156288,
            "byteOffset" : 689848,
            "target" : 34963
        },
        {
            "buffer" : 0,
            "byteLength" : 23520,
            "byteOffset" : 846136,
            "target" : 34962
        },
        {
            "buffer" : 0,
            "byteLength" : 23520,
            "byteOffset" : 869656,
            "target" : 34962
        },
        {
            "buffer" : 0,
            "byteLength" : 15680,
            "byteOffset" : 893176,
            "target" : 34962
        },
        {
            "buffer" : 0,
            "byteLength" : 18432,
            "byteOffset" : 908856,
            "target" : 34963
        },
        {
            "buffer" : 0,
            "byteLength" : 14820,
            "byteOffset" : 927288,
            "target" : 34962
        },
        {
            "buffer" : 0,
            "byteLength" : 14820,
            "byteOffset" : 942108,
            "target" : 34962
        },
        {
            "buffer" : 0,
            "byteLength" : 9880,
            "byteOffset" : 956928,
            "target" : 34962
        },
        {
            "buffer" : 0,
            "byteLength" : 11328,
            "byteOffset" : 966808,
            "target" : 34963
        },
        {
            "buffer" : 0,
            "byteLength" : 4992,
            "byteOffset" : 978136,
            "target" : 34962
        },
        {
            "buffer" : 0,
            "byteLength" : 4992,
            "byteOffset" : 983128,
            "target" : 34962
        },
        {
            "buffer" : 0,
            "byteLength" : 3328,
            "byteOffset" : 988120,
            "target" : 34962
        },
        {
            "buffer" : 0,
            "byteLength" : 1536,
            "byteOffset" : 991448,
            "target" : 34963
        },
        {
            "buffer" : 0,
            "byteLength" : 73800,
            "byteOffset" : 992984,
            "target" : 34962
        },
        {
            "buffer" : 0,
            "byteLength" : 73800,
            "byteOffset" : 1066784,
            "target" : 34962
        },
        {
            "buffer" : 0,
            "byteLength" : 49200,
            "byteOffset" : 1140584,
            "target" : 34962
        },
        {
            "buffer" : 0,
            "byteLength" : 58464,
            "byteOffset" : 1189784,
            "target" : 34963
        }
    ],
    "buffers" : [
        {
            "byteLength" : 1248248,
            "uri" : "data:application/octet-stream;base64,"
        }
    ]
}
