<svg width="782" height="124" viewBox="0 0 782 124" fill="none" xmlns="http://www.w3.org/2000/svg">
<g filter="url(#filter0_d_130_361)">
<path d="M246.505 4.80401C247.241 4.16401 248.073 3.84401 249.001 3.84401C249.737 3.84401 250.313 4.05201 250.729 4.46801C251.465 5.20401 252.041 6.38801 252.457 8.02001C252.873 9.62001 253.081 11.396 253.081 13.348C253.081 15.364 252.841 17.268 252.361 19.06C251.689 21.524 250.745 23.428 249.529 24.772C248.345 26.116 247.033 26.788 245.593 26.788C244.601 26.788 243.609 26.452 242.617 25.78C242.041 25.396 241.129 24.484 239.881 23.044C239.465 22.532 239.033 22.084 238.585 21.7C238.169 21.284 237.897 21.076 237.769 21.076C237.193 21.076 236.089 22.548 234.457 25.492C233.049 28.02 231.593 29.428 230.089 29.716C229.705 29.78 229.417 29.812 229.225 29.812C228.041 29.812 227.049 29.076 226.249 27.604C225.897 26.868 225.657 26.004 225.529 25.012C225.433 23.988 225.321 21.636 225.193 17.956C225.129 15.268 225.097 13.652 225.097 13.108C225.097 11.06 225.209 9.74801 225.433 9.17201C225.657 8.59601 226.121 8.27601 226.825 8.21201H227.401C228.201 8.21201 228.937 8.54801 229.609 9.22001C230.025 9.63601 230.281 10.132 230.377 10.708C230.505 11.284 230.617 12.756 230.713 15.124L230.905 20.116L233.113 17.332C234.265 15.86 235.161 14.9 235.801 14.452C236.441 13.972 237.209 13.732 238.105 13.732C238.713 13.732 239.257 13.956 239.737 14.404C240.217 14.82 241.241 15.972 242.809 17.86C244.153 19.524 244.969 20.404 245.257 20.5H245.305C245.337 20.532 245.369 20.548 245.401 20.548C245.881 20.548 246.345 19.764 246.793 18.196C247.241 16.628 247.465 15.044 247.465 13.444C247.465 12.868 247.449 12.452 247.417 12.196C247.289 10.852 246.905 9.86001 246.265 9.22001C245.625 8.58001 245.305 7.87601 245.305 7.10801C245.305 6.27601 245.705 5.50801 246.505 4.80401Z" fill="black"/>
<path d="M267.81 0.384001C268.994 0.128 269.858 0 270.402 0C271.266 0 271.954 0.256001 272.466 0.768002C273.01 1.28 273.282 1.888 273.282 2.592C273.282 3.168 273.09 3.728 272.706 4.272C272.354 4.784 271.858 5.168 271.218 5.424C270.802 5.616 269.298 5.968 266.706 6.48L263.25 7.104L262.77 9.12C262.482 10.496 262.338 11.488 262.338 12.096C262.338 12.8 262.546 13.152 262.962 13.152C263.122 13.152 264.082 12.944 265.842 12.528C267.602 12.112 268.738 11.904 269.25 11.904C269.41 11.904 269.506 11.92 269.538 11.952C270.818 12.368 271.458 13.248 271.458 14.592C271.458 15.552 271.106 16.304 270.402 16.848C269.698 17.36 268.29 17.888 266.178 18.432C264.482 18.88 263.346 19.216 262.77 19.44C262.226 19.664 261.954 19.92 261.954 20.208C261.954 20.368 262.034 20.56 262.194 20.784C262.418 21.136 263.042 21.312 264.066 21.312C264.738 21.312 265.298 21.296 265.746 21.264C265.97 21.264 266.258 21.264 266.61 21.264C266.962 21.232 267.202 21.216 267.33 21.216C268.034 21.216 268.53 21.28 268.818 21.408C269.138 21.504 269.474 21.728 269.826 22.08C270.434 22.688 270.738 23.392 270.738 24.192C270.738 24.832 270.514 25.424 270.066 25.968C269.81 26.32 269.426 26.576 268.914 26.736C268.402 26.864 267.49 26.992 266.178 27.12C265.218 27.216 264.386 27.264 263.682 27.264C261.474 27.264 259.746 26.592 258.498 25.248C256.898 23.616 256.098 21.168 256.098 17.904C256.098 16.176 256.29 14.048 256.674 11.52C256.93 9.984 257.058 8.864 257.058 8.16C257.058 7.648 256.93 7.216 256.674 6.864C256.322 6.384 256.146 5.808 256.146 5.136C256.146 4.368 256.354 3.76 256.77 3.312C257.25 2.768 258.914 2.208 261.762 1.632C263.362 1.312 265.378 0.896002 267.81 0.384001Z" fill="black"/>
<path d="M306.295 18.048C306.103 16.608 305.927 15.808 305.767 15.648H305.719C305.463 15.648 304.839 16.272 303.847 17.52C302.887 18.768 302.407 19.552 302.407 19.872C302.407 20.064 303.095 20.16 304.471 20.16H306.535L306.295 18.048ZM312.295 20.544C312.295 20.96 312.599 22.576 313.207 25.392C313.815 28.208 314.119 29.84 314.119 30.288C314.119 31.12 313.879 31.776 313.399 32.256C312.919 32.736 312.263 32.976 311.431 32.976C309.831 32.976 308.759 31.648 308.215 28.992C307.927 27.552 307.639 26.688 307.351 26.4C307.095 26.08 306.375 25.92 305.191 25.92C305.031 25.92 304.727 25.936 304.279 25.968C303.831 25.968 303.447 25.968 303.127 25.968C300.759 26 299.335 26.16 298.855 26.448C298.407 26.736 297.879 27.776 297.271 29.568C296.823 30.88 296.247 31.968 295.543 32.832C294.839 33.664 294.167 34.08 293.527 34.08C292.887 34.08 292.247 33.824 291.607 33.312C290.999 32.768 290.695 32.208 290.695 31.632C290.695 31.088 290.967 30.032 291.511 28.464C292.087 26.864 292.663 25.536 293.239 24.48C293.751 23.52 294.007 22.816 294.007 22.368C294.007 21.952 294.343 21.312 295.015 20.448C295.847 19.488 296.535 18.48 297.079 17.424C297.943 15.984 299.047 14.384 300.391 12.624C302.055 10.48 303.079 8.992 303.463 8.16C303.975 7.168 304.439 6.544 304.855 6.288C305.303 6.032 305.863 5.904 306.535 5.904C307.367 5.904 308.039 6.08 308.551 6.432C309.127 6.816 309.639 7.664 310.087 8.976C310.471 9.968 310.935 11.904 311.479 14.784C312.023 17.664 312.295 19.584 312.295 20.544Z" fill="black"/>
<path d="M329.415 13.016C329.415 12.664 329.159 12.232 328.647 11.72C328.135 11.208 327.495 10.952 326.727 10.952C326.215 10.952 325.895 11.08 325.767 11.336C325.703 11.464 325.671 11.704 325.671 12.056C325.671 12.76 325.735 13.592 325.863 14.552C326.023 15.512 326.167 15.992 326.295 15.992C326.487 15.992 326.919 15.752 327.591 15.272C328.263 14.792 328.711 14.392 328.935 14.072C329.255 13.656 329.415 13.304 329.415 13.016ZM321.687 6.68C322.583 5.88 323.447 5.368 324.279 5.144C325.111 4.92 325.799 4.808 326.343 4.808C327.143 4.808 328.167 5 329.415 5.384C331.207 5.896 332.615 6.872 333.639 8.312C334.695 9.752 335.223 11.336 335.223 13.064C335.223 15.272 334.407 17.128 332.775 18.632C332.103 19.304 331.767 19.704 331.767 19.832C331.767 19.992 332.439 20.392 333.783 21.032C335.159 21.672 336.663 22.296 338.295 22.904C339.639 23.416 340.679 24.024 341.415 24.728C342.151 25.432 342.519 26.168 342.519 26.936C342.519 27.672 342.199 28.36 341.559 29C341.047 29.512 340.551 29.768 340.071 29.768C339.335 29.768 337.079 28.984 333.303 27.416C329.847 25.976 327.975 25.256 327.687 25.256C327.527 25.256 327.447 25.432 327.447 25.784C327.447 26.136 327.511 26.616 327.639 27.224C327.735 27.768 327.783 28.264 327.783 28.712C327.783 30.216 327.079 31.176 325.671 31.592C325.319 31.688 324.999 31.736 324.711 31.736C323.655 31.736 322.791 31 322.119 29.528C321.479 28.056 320.791 25.416 320.055 21.608C319.543 18.952 319.287 16.328 319.287 13.736C319.287 11.496 319.495 9.896 319.911 8.936C320.231 8.2 320.823 7.448 321.687 6.68Z" fill="black"/>
<path d="M355.404 2.384C356.588 2.128 357.452 2 357.996 2C358.86 2 359.548 2.256 360.06 2.768C360.604 3.28 360.876 3.888 360.876 4.592C360.876 5.168 360.684 5.728 360.3 6.272C359.948 6.784 359.452 7.168 358.812 7.424C358.396 7.616 356.892 7.968 354.3 8.48L350.844 9.104L350.364 11.12C350.076 12.496 349.932 13.488 349.932 14.096C349.932 14.8 350.14 15.152 350.556 15.152C350.716 15.152 351.676 14.944 353.436 14.528C355.196 14.112 356.332 13.904 356.844 13.904C357.004 13.904 357.1 13.92 357.132 13.952C358.412 14.368 359.052 15.248 359.052 16.592C359.052 17.552 358.7 18.304 357.996 18.848C357.292 19.36 355.884 19.888 353.772 20.432C352.076 20.88 350.94 21.216 350.364 21.44C349.82 21.664 349.548 21.92 349.548 22.208C349.548 22.368 349.628 22.56 349.788 22.784C350.012 23.136 350.636 23.312 351.66 23.312C352.332 23.312 352.892 23.296 353.34 23.264C353.564 23.264 353.852 23.264 354.204 23.264C354.556 23.232 354.796 23.216 354.924 23.216C355.628 23.216 356.124 23.28 356.412 23.408C356.732 23.504 357.068 23.728 357.42 24.08C358.028 24.688 358.332 25.392 358.332 26.192C358.332 26.832 358.108 27.424 357.66 27.968C357.404 28.32 357.02 28.576 356.508 28.736C355.996 28.864 355.084 28.992 353.772 29.12C352.812 29.216 351.98 29.264 351.276 29.264C349.068 29.264 347.34 28.592 346.092 27.248C344.492 25.616 343.692 23.168 343.692 19.904C343.692 18.176 343.884 16.048 344.268 13.52C344.524 11.984 344.652 10.864 344.652 10.16C344.652 9.648 344.524 9.216 344.268 8.864C343.916 8.384 343.74 7.808 343.74 7.136C343.74 6.368 343.948 5.76 344.364 5.312C344.844 4.768 346.508 4.208 349.356 3.632C350.956 3.312 352.972 2.896 355.404 2.384Z" fill="black"/>
<path d="M396.185 5.136C397.177 4.976 397.945 4.896 398.489 4.896C398.937 4.896 399.545 5.056 400.313 5.376C401.465 5.856 402.361 6.48 403.001 7.248C403.673 7.984 404.009 8.752 404.009 9.552C404.009 10.32 403.705 11.008 403.097 11.616C402.585 12.128 401.961 12.384 401.225 12.384C400.393 12.384 399.529 12.048 398.633 11.376C398.057 10.96 397.513 10.752 397.001 10.752C396.169 10.752 394.969 11.376 393.401 12.624C392.409 13.424 391.705 14.176 391.289 14.88C390.873 15.584 390.665 16.416 390.665 17.376C390.665 17.856 390.713 18.384 390.809 18.96C391.193 21.424 392.329 22.656 394.217 22.656C394.889 22.656 395.721 22.48 396.713 22.128C397.545 21.808 398.137 21.648 398.489 21.648C398.777 21.648 399.145 21.776 399.593 22.032C400.201 22.352 400.633 22.864 400.889 23.568C401.017 23.856 401.081 24.192 401.081 24.576C401.081 25.6 400.521 26.432 399.401 27.072C398.313 27.712 396.793 28.064 394.841 28.128C394.745 28.128 394.601 28.144 394.409 28.176C394.217 28.176 394.073 28.176 393.977 28.176C392.217 28.176 390.713 27.808 389.465 27.072C388.249 26.304 387.161 25.104 386.201 23.472C385.753 22.704 385.465 22.032 385.337 21.456C385.241 20.88 385.193 19.712 385.193 17.952C385.193 16.32 385.241 15.184 385.337 14.544C385.465 13.904 385.705 13.216 386.057 12.48C386.633 11.392 387.225 10.512 387.833 9.84C388.441 9.136 389.321 8.368 390.473 7.536C391.561 6.736 392.473 6.192 393.209 5.904C393.945 5.584 394.937 5.328 396.185 5.136Z" fill="black"/>
<path d="M418.415 14.016C418.415 13.664 418.159 13.232 417.647 12.72C417.135 12.208 416.495 11.952 415.727 11.952C415.215 11.952 414.895 12.08 414.767 12.336C414.703 12.464 414.671 12.704 414.671 13.056C414.671 13.76 414.735 14.592 414.863 15.552C415.023 16.512 415.167 16.992 415.295 16.992C415.487 16.992 415.919 16.752 416.591 16.272C417.263 15.792 417.711 15.392 417.935 15.072C418.255 14.656 418.415 14.304 418.415 14.016ZM410.687 7.68C411.583 6.88 412.447 6.368 413.279 6.144C414.111 5.92 414.799 5.808 415.343 5.808C416.143 5.808 417.167 6 418.415 6.384C420.207 6.896 421.615 7.872 422.639 9.312C423.695 10.752 424.223 12.336 424.223 14.064C424.223 16.272 423.407 18.128 421.775 19.632C421.103 20.304 420.767 20.704 420.767 20.832C420.767 20.992 421.439 21.392 422.783 22.032C424.159 22.672 425.663 23.296 427.295 23.904C428.639 24.416 429.679 25.024 430.415 25.728C431.151 26.432 431.519 27.168 431.519 27.936C431.519 28.672 431.199 29.36 430.559 30C430.047 30.512 429.551 30.768 429.071 30.768C428.335 30.768 426.079 29.984 422.303 28.416C418.847 26.976 416.975 26.256 416.687 26.256C416.527 26.256 416.447 26.432 416.447 26.784C416.447 27.136 416.511 27.616 416.639 28.224C416.735 28.768 416.783 29.264 416.783 29.712C416.783 31.216 416.079 32.176 414.671 32.592C414.319 32.688 413.999 32.736 413.711 32.736C412.655 32.736 411.791 32 411.119 30.528C410.479 29.056 409.791 26.416 409.055 22.608C408.543 19.952 408.287 17.328 408.287 14.736C408.287 12.496 408.495 10.896 408.911 9.936C409.231 9.2 409.823 8.448 410.687 7.68Z" fill="black"/>
<path d="M449.436 18.048C449.244 16.608 449.068 15.808 448.908 15.648H448.86C448.604 15.648 447.98 16.272 446.988 17.52C446.028 18.768 445.548 19.552 445.548 19.872C445.548 20.064 446.236 20.16 447.612 20.16H449.676L449.436 18.048ZM455.436 20.544C455.436 20.96 455.74 22.576 456.348 25.392C456.956 28.208 457.26 29.84 457.26 30.288C457.26 31.12 457.02 31.776 456.54 32.256C456.06 32.736 455.404 32.976 454.572 32.976C452.972 32.976 451.9 31.648 451.356 28.992C451.068 27.552 450.78 26.688 450.492 26.4C450.236 26.08 449.516 25.92 448.332 25.92C448.172 25.92 447.868 25.936 447.42 25.968C446.972 25.968 446.588 25.968 446.268 25.968C443.9 26 442.476 26.16 441.996 26.448C441.548 26.736 441.02 27.776 440.412 29.568C439.964 30.88 439.388 31.968 438.684 32.832C437.98 33.664 437.308 34.08 436.668 34.08C436.028 34.08 435.388 33.824 434.748 33.312C434.14 32.768 433.836 32.208 433.836 31.632C433.836 31.088 434.108 30.032 434.652 28.464C435.228 26.864 435.804 25.536 436.38 24.48C436.892 23.52 437.148 22.816 437.148 22.368C437.148 21.952 437.484 21.312 438.156 20.448C438.988 19.488 439.676 18.48 440.22 17.424C441.084 15.984 442.188 14.384 443.532 12.624C445.196 10.48 446.22 8.992 446.604 8.16C447.116 7.168 447.58 6.544 447.996 6.288C448.444 6.032 449.004 5.904 449.676 5.904C450.508 5.904 451.18 6.08 451.692 6.432C452.268 6.816 452.78 7.664 453.228 8.976C453.612 9.968 454.076 11.904 454.62 14.784C455.164 17.664 455.436 19.584 455.436 20.544Z" fill="black"/>
<path d="M461.859 8.016C462.019 7.568 462.675 6.992 463.827 6.288C464.979 5.552 465.843 5.184 466.419 5.184C467.443 5.184 469.235 5.408 471.795 5.856C474.387 6.304 475.875 6.64 476.259 6.864C477.027 7.376 477.411 8.096 477.411 9.024C477.411 9.44 477.315 9.856 477.123 10.272C476.867 10.88 476.547 11.312 476.163 11.568C475.779 11.792 475.187 11.904 474.387 11.904C473.875 11.904 472.947 11.824 471.603 11.664C470.259 11.472 469.219 11.376 468.483 11.376C468.259 11.376 468.131 11.392 468.099 11.424C468.003 11.52 467.859 12.24 467.667 13.584L467.427 15.456H470.259C473.235 15.456 474.947 16.016 475.395 17.136C475.523 17.488 475.587 17.888 475.587 18.336C475.587 19.104 475.363 19.76 474.915 20.304C474.595 20.688 474.195 20.944 473.715 21.072C473.267 21.2 472.291 21.296 470.787 21.36L467.379 21.552L467.187 26.256C467.091 28.432 466.979 29.808 466.851 30.384C466.755 30.928 466.499 31.376 466.083 31.728C465.539 32.176 464.931 32.4 464.259 32.4C463.491 32.4 462.803 32.096 462.195 31.488C461.779 31.072 461.523 30.656 461.427 30.24C461.331 29.792 461.283 28.768 461.283 27.168C461.283 25.248 461.475 22.4 461.859 18.624C462.083 16.576 462.195 14.896 462.195 13.584C462.195 12.592 462.131 11.76 462.003 11.088C461.875 10.352 461.811 9.552 461.811 8.688C461.811 8.336 461.827 8.112 461.859 8.016Z" fill="black"/>
<path d="M482.398 3.744C483.038 3.744 484.174 3.648 485.806 3.456C487.47 3.264 489.23 3.04 491.086 2.784C492.974 2.496 494.126 2.336 494.542 2.304C495.854 2.112 497.422 1.984 499.246 1.92H499.822C501.006 1.92 501.886 2.224 502.462 2.832C503.07 3.408 503.374 4.096 503.374 4.896C503.374 5.536 503.166 6.112 502.75 6.624C502.334 7.136 501.774 7.456 501.07 7.584C500.91 7.616 500.158 7.68 498.814 7.776C497.502 7.84 496.238 7.936 495.022 8.064C493.806 8.192 493.134 8.32 493.006 8.448C492.75 8.704 492.766 9.152 493.054 9.792C493.246 10.368 493.374 12.688 493.438 16.752C493.438 20.816 493.742 24.352 494.35 27.36C494.414 27.584 494.446 27.872 494.446 28.224C494.446 28.672 494.19 29.152 493.678 29.664C492.974 30.304 492.27 30.624 491.566 30.624C490.798 30.624 490.062 30.272 489.358 29.568C488.91 29.12 488.606 28.656 488.446 28.176C488.318 27.696 488.19 26.784 488.062 25.44C487.902 23.84 487.822 21.616 487.822 18.768V16.704C487.822 14.08 487.71 12.24 487.486 11.184L487.054 9.264H484.318C483.102 9.264 482.286 9.216 481.87 9.12C481.486 9.024 481.102 8.768 480.718 8.352C480.11 7.808 479.806 7.216 479.806 6.576C479.806 5.904 480.078 5.264 480.622 4.656C481.198 4.048 481.79 3.744 482.398 3.744Z" fill="black"/>
<path d="M519.248 0.384001C520.432 0.128 521.296 0 521.84 0C522.704 0 523.392 0.256001 523.904 0.768002C524.448 1.28 524.72 1.888 524.72 2.592C524.72 3.168 524.528 3.728 524.144 4.272C523.792 4.784 523.296 5.168 522.656 5.424C522.24 5.616 520.736 5.968 518.144 6.48L514.688 7.104L514.208 9.12C513.92 10.496 513.776 11.488 513.776 12.096C513.776 12.8 513.984 13.152 514.4 13.152C514.56 13.152 515.52 12.944 517.28 12.528C519.04 12.112 520.176 11.904 520.688 11.904C520.848 11.904 520.944 11.92 520.976 11.952C522.256 12.368 522.896 13.248 522.896 14.592C522.896 15.552 522.544 16.304 521.84 16.848C521.136 17.36 519.728 17.888 517.616 18.432C515.92 18.88 514.784 19.216 514.208 19.44C513.664 19.664 513.392 19.92 513.392 20.208C513.392 20.368 513.472 20.56 513.632 20.784C513.856 21.136 514.48 21.312 515.504 21.312C516.176 21.312 516.736 21.296 517.184 21.264C517.408 21.264 517.696 21.264 518.048 21.264C518.4 21.232 518.64 21.216 518.768 21.216C519.472 21.216 519.968 21.28 520.256 21.408C520.576 21.504 520.912 21.728 521.264 22.08C521.872 22.688 522.176 23.392 522.176 24.192C522.176 24.832 521.952 25.424 521.504 25.968C521.248 26.32 520.864 26.576 520.352 26.736C519.84 26.864 518.928 26.992 517.616 27.12C516.656 27.216 515.824 27.264 515.12 27.264C512.912 27.264 511.184 26.592 509.936 25.248C508.336 23.616 507.536 21.168 507.536 17.904C507.536 16.176 507.728 14.048 508.112 11.52C508.368 9.984 508.496 8.864 508.496 8.16C508.496 7.648 508.368 7.216 508.112 6.864C507.76 6.384 507.584 5.808 507.584 5.136C507.584 4.368 507.792 3.76 508.208 3.312C508.688 2.768 510.352 2.208 513.2 1.632C514.8 1.312 516.816 0.896002 519.248 0.384001Z" fill="black"/>
<path d="M540.125 7.536C539.837 7.44 539.549 7.392 539.261 7.392C538.461 7.392 537.677 7.664 536.909 8.208C536.141 8.72 535.677 9.344 535.517 10.08C535.325 10.944 535.229 11.84 535.229 12.768C535.229 14.464 535.517 16.224 536.093 18.048C536.733 19.968 537.053 21.28 537.053 21.984C537.053 22.56 537.165 22.848 537.389 22.848C537.581 22.848 537.869 22.784 538.253 22.656C539.213 22.4 539.949 22.096 540.461 21.744C541.005 21.36 541.597 20.72 542.237 19.824C542.781 19.024 543.117 18.4 543.245 17.952C543.373 17.472 543.437 16.56 543.437 15.216C543.437 13.84 543.357 12.896 543.197 12.384C543.069 11.84 542.685 11.056 542.045 10.032C541.149 8.464 540.509 7.632 540.125 7.536ZM534.893 2.784C536.205 2.144 537.581 1.824 539.021 1.824C541.069 1.824 542.765 2.384 544.109 3.504C545.453 4.624 546.765 6.56 548.045 9.312C548.493 10.272 548.781 10.992 548.909 11.472C549.037 11.92 549.101 12.56 549.101 13.392C549.101 14.224 549.085 14.928 549.053 15.504C548.989 18.032 548.621 19.952 547.949 21.264C547.437 22.32 546.605 23.488 545.453 24.768C544.301 26.048 543.293 26.896 542.429 27.312C541.693 27.696 540.525 28.064 538.925 28.416C537.357 28.768 536.061 28.944 535.037 28.944C533.853 28.944 532.973 28.752 532.397 28.368C531.853 27.984 531.501 27.344 531.341 26.448C531.117 25.36 530.845 24.56 530.525 24.048C530.205 23.376 529.837 20.912 529.421 16.656C529.165 13.52 529.037 11.664 529.037 11.088C529.037 10.256 529.181 9.456 529.469 8.688C529.885 7.568 530.605 6.448 531.629 5.328C532.685 4.208 533.773 3.36 534.893 2.784Z" fill="black"/>
<path d="M117.914 58.384C117.21 58 116.202 57.808 114.89 57.808C114.442 57.808 114.106 57.824 113.882 57.856L112.682 58V65.008L113.834 64.768C114.698 64.608 115.77 64.144 117.05 63.376C118.362 62.576 119.13 61.92 119.354 61.408C119.45 61.216 119.498 61.008 119.498 60.784C119.498 60.336 119.338 59.888 119.018 59.44C118.73 58.96 118.362 58.608 117.914 58.384ZM114.17 47.68C114.17 47.456 114.026 47.344 113.738 47.344C113.386 47.344 113.066 47.488 112.778 47.776C112.49 48.064 112.346 48.592 112.346 49.36C112.346 49.968 112.458 50.272 112.682 50.272C112.874 50.272 113.162 49.92 113.546 49.216C113.962 48.512 114.17 48 114.17 47.68ZM110.666 42.352C111.338 42.032 112.346 41.872 113.69 41.872C115.066 41.872 116.138 42.032 116.906 42.352C117.61 42.64 118.234 43.184 118.778 43.984C119.354 44.752 119.722 45.616 119.882 46.576C119.914 46.704 119.93 46.896 119.93 47.152C119.93 47.472 119.722 48.192 119.306 49.312C118.89 50.432 118.682 51.328 118.682 52C118.682 52.32 119.21 52.752 120.266 53.296C122.378 54.416 123.802 55.872 124.538 57.664C124.922 58.592 125.114 59.584 125.114 60.64C125.114 62.816 124.474 64.576 123.194 65.92C122.074 67.104 120.33 68.208 117.962 69.232C115.594 70.256 113.594 70.768 111.962 70.768C110.842 70.768 109.946 70.512 109.274 70C108.634 69.456 108.314 68.736 108.314 67.84C108.314 67.072 108.09 66.384 107.642 65.776C107.386 65.392 107.21 64.704 107.114 63.712C107.018 62.72 106.906 60.672 106.778 57.568C106.618 52.8 106.442 49.968 106.25 49.072C106.186 48.496 106.154 48.048 106.154 47.728C106.154 47.472 106.186 47.184 106.25 46.864C106.378 46.352 106.97 45.552 108.026 44.464C109.082 43.376 109.962 42.672 110.666 42.352Z" fill="black"/>
<path d="M146.544 46.144C146.736 46.112 146.992 46.096 147.312 46.096C148.304 46.096 149.072 46.432 149.616 47.104C150.16 47.776 150.432 48.752 150.432 50.032C150.432 52.144 149.984 54.144 149.088 56.032C148.224 57.888 147.056 59.344 145.584 60.4L143.76 61.744L143.952 63.76C144.272 67.28 144.432 69.568 144.432 70.624C144.432 71.84 144.32 72.72 144.096 73.264C143.872 73.808 143.488 74.272 142.944 74.656C142.56 74.912 142.112 75.04 141.6 75.04C140.832 75.04 140.112 74.688 139.44 73.984C138.928 73.376 138.672 72.432 138.672 71.152C138.672 69.968 138.608 68.16 138.48 65.728L138.24 62.368L136.08 61.744C134.608 61.328 133.408 60.688 132.48 59.824C131.68 59.088 130.624 57.568 129.312 55.264C128 52.96 127.344 51.456 127.344 50.752C127.344 50.048 127.68 49.424 128.352 48.88C129.024 48.336 129.744 48.064 130.512 48.064C131.024 48.064 131.472 48.208 131.856 48.496C132.144 48.688 132.928 49.952 134.208 52.288C135.104 53.92 135.712 54.912 136.032 55.264C136.384 55.616 137.072 55.968 138.096 56.32C139.056 56.672 139.728 56.848 140.112 56.848C140.432 56.848 140.896 56.672 141.504 56.32C142.528 55.776 143.264 55.056 143.712 54.16C144.16 53.232 144.384 51.984 144.384 50.416C144.384 48.976 144.544 47.936 144.864 47.296C145.184 46.656 145.744 46.272 146.544 46.144Z" fill="black"/>
<path d="M175.39 43.744C176.03 43.744 177.166 43.648 178.798 43.456C180.462 43.264 182.222 43.04 184.078 42.784C185.966 42.496 187.118 42.336 187.534 42.304C188.846 42.112 190.414 41.984 192.238 41.92H192.814C193.998 41.92 194.878 42.224 195.454 42.832C196.062 43.408 196.366 44.096 196.366 44.896C196.366 45.536 196.158 46.112 195.742 46.624C195.326 47.136 194.766 47.456 194.062 47.584C193.902 47.616 193.15 47.68 191.806 47.776C190.494 47.84 189.23 47.936 188.014 48.064C186.798 48.192 186.126 48.32 185.998 48.448C185.742 48.704 185.758 49.152 186.046 49.792C186.238 50.368 186.366 52.688 186.43 56.752C186.43 60.816 186.734 64.352 187.342 67.36C187.406 67.584 187.438 67.872 187.438 68.224C187.438 68.672 187.182 69.152 186.67 69.664C185.966 70.304 185.262 70.624 184.558 70.624C183.79 70.624 183.054 70.272 182.35 69.568C181.902 69.12 181.598 68.656 181.438 68.176C181.31 67.696 181.182 66.784 181.054 65.44C180.894 63.84 180.814 61.616 180.814 58.768V56.704C180.814 54.08 180.702 52.24 180.478 51.184L180.046 49.264H177.31C176.094 49.264 175.278 49.216 174.862 49.12C174.478 49.024 174.094 48.768 173.71 48.352C173.102 47.808 172.798 47.216 172.798 46.576C172.798 45.904 173.07 45.264 173.614 44.656C174.19 44.048 174.782 43.744 175.39 43.744Z" fill="black"/>
<path d="M208.528 43.888C209.2 43.312 209.84 43.024 210.448 43.024C211.088 43.024 211.696 43.328 212.272 43.936C212.72 44.384 212.976 44.848 213.04 45.328C213.136 45.808 213.184 47.056 213.184 49.072C213.184 50.928 213.216 52.16 213.28 52.768C213.376 53.376 213.584 53.888 213.904 54.304C214.384 54.88 214.624 55.472 214.624 56.08C214.624 56.72 214.384 57.328 213.904 57.904C213.456 58.48 213.232 59.152 213.232 59.92C213.232 60.656 213.264 61.296 213.328 61.84C213.424 62.736 213.472 63.392 213.472 63.808C213.472 64.48 213.2 65.088 212.656 65.632C212.048 66.24 211.392 66.544 210.688 66.544C209.984 66.544 209.344 66.24 208.768 65.632C208.224 64.992 207.888 64.144 207.76 63.088C207.632 61.968 207.424 61.408 207.136 61.408C206.848 61.408 205.984 61.696 204.544 62.272L202.336 63.088L202.288 66.736C202.288 68.496 202.24 69.584 202.144 70C202.048 70.384 201.76 70.784 201.28 71.2C200.544 71.808 200.016 72.112 199.696 72.112C199.248 72.112 198.688 71.904 198.016 71.488C197.376 71.072 196.992 70.688 196.864 70.336C196.736 69.792 196.64 66.4 196.576 60.16L196.48 50.608L197.488 49.792C198.16 49.216 198.704 48.928 199.12 48.928C199.408 48.928 199.856 49.056 200.464 49.312C201.072 49.6 201.568 50.24 201.952 51.232C202.336 52.192 202.528 53.312 202.528 54.592C202.528 55.008 202.528 55.312 202.528 55.504C202.528 55.664 202.544 55.84 202.576 56.032C202.64 56.224 202.704 56.352 202.768 56.416C202.864 56.48 202.976 56.512 203.104 56.512C203.392 56.512 204.176 56.208 205.456 55.6L207.472 54.592V44.8L208.528 43.888Z" fill="black"/>
<path d="M229.49 40.384C230.674 40.128 231.538 40 232.082 40C232.946 40 233.634 40.256 234.146 40.768C234.69 41.28 234.962 41.888 234.962 42.592C234.962 43.168 234.77 43.728 234.386 44.272C234.034 44.784 233.538 45.168 232.898 45.424C232.482 45.616 230.978 45.968 228.386 46.48L224.93 47.104L224.45 49.12C224.162 50.496 224.018 51.488 224.018 52.096C224.018 52.8 224.226 53.152 224.642 53.152C224.802 53.152 225.762 52.944 227.522 52.528C229.282 52.112 230.418 51.904 230.93 51.904C231.09 51.904 231.186 51.92 231.218 51.952C232.498 52.368 233.138 53.248 233.138 54.592C233.138 55.552 232.786 56.304 232.082 56.848C231.378 57.36 229.97 57.888 227.858 58.432C226.162 58.88 225.026 59.216 224.45 59.44C223.906 59.664 223.634 59.92 223.634 60.208C223.634 60.368 223.714 60.56 223.874 60.784C224.098 61.136 224.722 61.312 225.746 61.312C226.418 61.312 226.978 61.296 227.426 61.264C227.65 61.264 227.938 61.264 228.29 61.264C228.642 61.232 228.882 61.216 229.01 61.216C229.714 61.216 230.21 61.28 230.498 61.408C230.818 61.504 231.154 61.728 231.506 62.08C232.114 62.688 232.418 63.392 232.418 64.192C232.418 64.832 232.194 65.424 231.746 65.968C231.49 66.32 231.106 66.576 230.594 66.736C230.082 66.864 229.17 66.992 227.858 67.12C226.898 67.216 226.066 67.264 225.362 67.264C223.154 67.264 221.426 66.592 220.178 65.248C218.578 63.616 217.778 61.168 217.778 57.904C217.778 56.176 217.97 54.048 218.354 51.52C218.61 49.984 218.738 48.864 218.738 48.16C218.738 47.648 218.61 47.216 218.354 46.864C218.002 46.384 217.826 45.808 217.826 45.136C217.826 44.368 218.034 43.76 218.45 43.312C218.93 42.768 220.594 42.208 223.442 41.632C225.042 41.312 227.058 40.896 229.49 40.384Z" fill="black"/>
<path d="M279.263 46.432C280.287 45.888 281.167 45.616 281.903 45.616C283.343 45.616 284.623 46.864 285.743 49.36C286.319 50.608 286.799 53.824 287.183 59.008C287.471 62.56 287.615 64.768 287.615 65.632C287.615 66.464 287.487 67.088 287.231 67.504C286.719 68.304 285.999 68.704 285.071 68.704C283.855 68.704 282.991 68.08 282.479 66.832C282.127 66.096 281.807 63.744 281.519 59.776C281.231 55.872 281.023 53.728 280.895 53.344C280.831 53.248 280.783 53.2 280.751 53.2C280.559 53.2 280.207 53.552 279.695 54.256C278.831 55.472 277.471 56.912 275.615 58.576C273.759 60.208 272.463 61.152 271.727 61.408C271.055 61.632 270.271 61.744 269.375 61.744C267.583 61.744 266.111 61.36 264.959 60.592C263.999 59.92 263.439 59.584 263.279 59.584C263.151 59.584 263.087 59.712 263.087 59.968C263.087 60.64 263.455 62.224 264.191 64.72C264.895 67.152 265.247 68.928 265.247 70.048C265.247 71.04 264.991 71.808 264.479 72.352C263.903 72.928 263.295 73.216 262.655 73.216C261.951 73.216 261.295 72.912 260.687 72.304C260.111 71.664 259.759 70.832 259.631 69.808C259.471 68.88 259.135 67.696 258.623 66.256C257.727 63.952 257.279 60.96 257.279 57.28C257.279 53.824 257.695 51.68 258.527 50.848C259.071 50.304 259.791 50.032 260.687 50.032C261.295 50.032 261.887 50.176 262.463 50.464C263.135 50.848 264.271 51.888 265.871 53.584C267.599 55.376 268.671 56.272 269.087 56.272C269.599 56.272 270.543 55.616 271.919 54.304C273.327 52.992 274.559 51.6 275.615 50.128C276.959 48.272 278.175 47.04 279.263 46.432Z" fill="black"/>
<path d="M305.413 58.048C305.221 56.608 305.044 55.808 304.884 55.648H304.836C304.58 55.648 303.957 56.272 302.965 57.52C302.005 58.768 301.525 59.552 301.525 59.872C301.525 60.064 302.213 60.16 303.589 60.16H305.652L305.413 58.048ZM311.413 60.544C311.413 60.96 311.716 62.576 312.324 65.392C312.932 68.208 313.237 69.84 313.237 70.288C313.237 71.12 312.997 71.776 312.517 72.256C312.037 72.736 311.38 72.976 310.548 72.976C308.948 72.976 307.876 71.648 307.332 68.992C307.044 67.552 306.757 66.688 306.469 66.4C306.213 66.08 305.493 65.92 304.309 65.92C304.149 65.92 303.845 65.936 303.397 65.968C302.949 65.968 302.565 65.968 302.245 65.968C299.877 66 298.453 66.16 297.973 66.448C297.525 66.736 296.996 67.776 296.388 69.568C295.94 70.88 295.364 71.968 294.66 72.832C293.956 73.664 293.285 74.08 292.645 74.08C292.005 74.08 291.364 73.824 290.724 73.312C290.116 72.768 289.812 72.208 289.812 71.632C289.812 71.088 290.085 70.032 290.629 68.464C291.205 66.864 291.781 65.536 292.357 64.48C292.869 63.52 293.125 62.816 293.125 62.368C293.125 61.952 293.461 61.312 294.133 60.448C294.965 59.488 295.653 58.48 296.197 57.424C297.061 55.984 298.165 54.384 299.509 52.624C301.173 50.48 302.197 48.992 302.581 48.16C303.093 47.168 303.557 46.544 303.973 46.288C304.421 46.032 304.98 45.904 305.652 45.904C306.484 45.904 307.156 46.08 307.668 46.432C308.244 46.816 308.756 47.664 309.204 48.976C309.588 49.968 310.052 51.904 310.596 54.784C311.14 57.664 311.413 59.584 311.413 60.544Z" fill="black"/>
<path d="M327.396 45.136C328.388 44.976 329.156 44.896 329.7 44.896C330.148 44.896 330.756 45.056 331.524 45.376C332.676 45.856 333.572 46.48 334.212 47.248C334.884 47.984 335.22 48.752 335.22 49.552C335.22 50.32 334.916 51.008 334.308 51.616C333.796 52.128 333.172 52.384 332.436 52.384C331.604 52.384 330.74 52.048 329.844 51.376C329.268 50.96 328.724 50.752 328.212 50.752C327.38 50.752 326.18 51.376 324.612 52.624C323.62 53.424 322.916 54.176 322.5 54.88C322.084 55.584 321.876 56.416 321.876 57.376C321.876 57.856 321.924 58.384 322.02 58.96C322.404 61.424 323.54 62.656 325.428 62.656C326.1 62.656 326.932 62.48 327.924 62.128C328.756 61.808 329.348 61.648 329.7 61.648C329.988 61.648 330.356 61.776 330.804 62.032C331.412 62.352 331.844 62.864 332.1 63.568C332.228 63.856 332.292 64.192 332.292 64.576C332.292 65.6 331.732 66.432 330.612 67.072C329.524 67.712 328.004 68.064 326.052 68.128C325.956 68.128 325.812 68.144 325.62 68.176C325.428 68.176 325.284 68.176 325.188 68.176C323.428 68.176 321.924 67.808 320.676 67.072C319.46 66.304 318.372 65.104 317.412 63.472C316.964 62.704 316.676 62.032 316.548 61.456C316.452 60.88 316.404 59.712 316.404 57.952C316.404 56.32 316.452 55.184 316.548 54.544C316.676 53.904 316.916 53.216 317.268 52.48C317.844 51.392 318.436 50.512 319.044 49.84C319.652 49.136 320.532 48.368 321.684 47.536C322.772 46.736 323.684 46.192 324.42 45.904C325.156 45.584 326.148 45.328 327.396 45.136Z" fill="black"/>
<path d="M350.45 43.888C351.122 43.312 351.762 43.024 352.37 43.024C353.01 43.024 353.618 43.328 354.194 43.936C354.642 44.384 354.898 44.848 354.962 45.328C355.058 45.808 355.106 47.056 355.106 49.072C355.106 50.928 355.138 52.16 355.202 52.768C355.298 53.376 355.506 53.888 355.826 54.304C356.306 54.88 356.546 55.472 356.546 56.08C356.546 56.72 356.306 57.328 355.826 57.904C355.378 58.48 355.154 59.152 355.154 59.92C355.154 60.656 355.186 61.296 355.25 61.84C355.346 62.736 355.394 63.392 355.394 63.808C355.394 64.48 355.122 65.088 354.578 65.632C353.97 66.24 353.314 66.544 352.61 66.544C351.906 66.544 351.266 66.24 350.69 65.632C350.146 64.992 349.81 64.144 349.682 63.088C349.554 61.968 349.346 61.408 349.058 61.408C348.77 61.408 347.906 61.696 346.466 62.272L344.258 63.088L344.21 66.736C344.21 68.496 344.162 69.584 344.066 70C343.97 70.384 343.682 70.784 343.202 71.2C342.466 71.808 341.938 72.112 341.618 72.112C341.17 72.112 340.61 71.904 339.938 71.488C339.298 71.072 338.914 70.688 338.786 70.336C338.658 69.792 338.562 66.4 338.498 60.16L338.402 50.608L339.41 49.792C340.082 49.216 340.626 48.928 341.042 48.928C341.33 48.928 341.778 49.056 342.386 49.312C342.994 49.6 343.49 50.24 343.874 51.232C344.258 52.192 344.45 53.312 344.45 54.592C344.45 55.008 344.45 55.312 344.45 55.504C344.45 55.664 344.466 55.84 344.498 56.032C344.562 56.224 344.626 56.352 344.69 56.416C344.786 56.48 344.898 56.512 345.026 56.512C345.314 56.512 346.098 56.208 347.378 55.6L349.394 54.592V44.8L350.45 43.888Z" fill="black"/>
<path d="M362.572 41.008C363.116 40.336 363.788 40 364.588 40C365.324 40 365.98 40.272 366.556 40.816C367.164 41.36 367.468 42.032 367.468 42.832C367.468 43.632 367.212 44.288 366.7 44.8C366.188 45.312 365.564 45.568 364.828 45.568C364.028 45.568 363.324 45.264 362.716 44.656C362.14 44.08 361.852 43.472 361.852 42.832C361.852 42.224 362.092 41.616 362.572 41.008ZM363.964 52.096C364.54 51.936 365.004 51.856 365.356 51.856C366.54 51.856 367.324 52.352 367.708 53.344C367.868 53.76 367.948 54.176 367.948 54.592C367.948 55.072 367.804 56.064 367.516 57.568C367.068 59.904 366.764 62.608 366.604 65.68C366.476 67.984 366.348 69.44 366.22 70.048C366.124 70.624 365.884 71.12 365.5 71.536C364.924 72.144 364.188 72.448 363.292 72.448C362.524 72.448 361.9 72.208 361.42 71.728C361.1 71.408 360.892 71.024 360.796 70.576C360.732 70.128 360.7 69.248 360.7 67.936C360.7 66.24 360.876 63.84 361.228 60.736C361.58 57.632 361.9 55.68 362.188 54.88C362.828 53.152 363.42 52.224 363.964 52.096Z" fill="black"/>
<path d="M393.333 46.816C393.909 46.208 394.581 45.904 395.349 45.904C396.693 45.904 397.589 46.576 398.037 47.92C398.197 48.4 398.277 48.832 398.277 49.216C398.277 49.888 397.717 52.768 396.597 57.856C395.861 61.28 395.093 63.568 394.293 64.72C393.525 65.84 392.341 66.4 390.741 66.4C389.717 66.4 388.245 66.016 386.325 65.248C384.437 64.48 382.885 63.632 381.669 62.704C380.197 61.584 379.317 61.024 379.029 61.024C378.709 61.024 378.549 62.032 378.549 64.048C378.549 65.36 378.501 66.256 378.405 66.736C378.309 67.184 378.085 67.584 377.733 67.936C377.221 68.512 376.581 68.8 375.813 68.8C374.949 68.8 374.261 68.448 373.749 67.744C373.269 67.136 373.029 66.096 373.029 64.624C373.029 63.6 373.045 62.72 373.077 61.984C373.141 59.296 373.333 57.536 373.653 56.704C373.973 55.84 374.677 55.152 375.765 54.64C376.277 54.384 376.805 54.256 377.349 54.256C378.757 54.256 381.109 55.376 384.405 57.616C386.997 59.408 388.773 60.304 389.733 60.304C389.957 60.304 390.469 58.576 391.269 55.12C392.101 51.664 392.517 49.472 392.517 48.544C392.517 48 392.789 47.424 393.333 46.816Z" fill="black"/>
<path d="M415.115 40.384C416.299 40.128 417.163 40 417.707 40C418.571 40 419.259 40.256 419.771 40.768C420.315 41.28 420.587 41.888 420.587 42.592C420.587 43.168 420.395 43.728 420.011 44.272C419.659 44.784 419.163 45.168 418.523 45.424C418.107 45.616 416.603 45.968 414.011 46.48L410.555 47.104L410.075 49.12C409.787 50.496 409.643 51.488 409.643 52.096C409.643 52.8 409.851 53.152 410.267 53.152C410.427 53.152 411.387 52.944 413.147 52.528C414.907 52.112 416.043 51.904 416.555 51.904C416.715 51.904 416.811 51.92 416.843 51.952C418.123 52.368 418.763 53.248 418.763 54.592C418.763 55.552 418.411 56.304 417.707 56.848C417.003 57.36 415.595 57.888 413.483 58.432C411.787 58.88 410.651 59.216 410.075 59.44C409.531 59.664 409.259 59.92 409.259 60.208C409.259 60.368 409.339 60.56 409.499 60.784C409.723 61.136 410.347 61.312 411.371 61.312C412.043 61.312 412.603 61.296 413.051 61.264C413.275 61.264 413.563 61.264 413.915 61.264C414.267 61.232 414.507 61.216 414.635 61.216C415.339 61.216 415.835 61.28 416.123 61.408C416.443 61.504 416.779 61.728 417.131 62.08C417.739 62.688 418.043 63.392 418.043 64.192C418.043 64.832 417.819 65.424 417.371 65.968C417.115 66.32 416.731 66.576 416.219 66.736C415.707 66.864 414.795 66.992 413.483 67.12C412.523 67.216 411.691 67.264 410.987 67.264C408.779 67.264 407.051 66.592 405.803 65.248C404.203 63.616 403.403 61.168 403.403 57.904C403.403 56.176 403.595 54.048 403.979 51.52C404.235 49.984 404.363 48.864 404.363 48.16C404.363 47.648 404.235 47.216 403.979 46.864C403.627 46.384 403.451 45.808 403.451 45.136C403.451 44.368 403.659 43.76 404.075 43.312C404.555 42.768 406.219 42.208 409.067 41.632C410.667 41.312 412.683 40.896 415.115 40.384Z" fill="black"/>
<path d="M434.032 54.016C434.032 53.664 433.776 53.232 433.264 52.72C432.752 52.208 432.112 51.952 431.344 51.952C430.832 51.952 430.512 52.08 430.384 52.336C430.32 52.464 430.288 52.704 430.288 53.056C430.288 53.76 430.352 54.592 430.48 55.552C430.64 56.512 430.784 56.992 430.912 56.992C431.104 56.992 431.536 56.752 432.208 56.272C432.88 55.792 433.328 55.392 433.552 55.072C433.872 54.656 434.032 54.304 434.032 54.016ZM426.304 47.68C427.2 46.88 428.064 46.368 428.896 46.144C429.728 45.92 430.416 45.808 430.96 45.808C431.76 45.808 432.784 46 434.032 46.384C435.824 46.896 437.232 47.872 438.256 49.312C439.312 50.752 439.84 52.336 439.84 54.064C439.84 56.272 439.024 58.128 437.392 59.632C436.72 60.304 436.384 60.704 436.384 60.832C436.384 60.992 437.056 61.392 438.4 62.032C439.776 62.672 441.28 63.296 442.912 63.904C444.256 64.416 445.296 65.024 446.032 65.728C446.768 66.432 447.136 67.168 447.136 67.936C447.136 68.672 446.816 69.36 446.176 70C445.664 70.512 445.168 70.768 444.688 70.768C443.952 70.768 441.696 69.984 437.92 68.416C434.464 66.976 432.592 66.256 432.304 66.256C432.144 66.256 432.064 66.432 432.064 66.784C432.064 67.136 432.128 67.616 432.256 68.224C432.352 68.768 432.4 69.264 432.4 69.712C432.4 71.216 431.696 72.176 430.288 72.592C429.936 72.688 429.616 72.736 429.328 72.736C428.272 72.736 427.408 72 426.736 70.528C426.096 69.056 425.408 66.416 424.672 62.608C424.16 59.952 423.904 57.328 423.904 54.736C423.904 52.496 424.112 50.896 424.528 49.936C424.848 49.2 425.44 48.448 426.304 47.68Z" fill="black"/>
<path d="M463.653 46.144C463.845 46.112 464.101 46.096 464.421 46.096C465.413 46.096 466.181 46.432 466.725 47.104C467.269 47.776 467.541 48.752 467.541 50.032C467.541 52.144 467.093 54.144 466.197 56.032C465.333 57.888 464.165 59.344 462.693 60.4L460.869 61.744L461.061 63.76C461.381 67.28 461.541 69.568 461.541 70.624C461.541 71.84 461.429 72.72 461.205 73.264C460.981 73.808 460.597 74.272 460.053 74.656C459.669 74.912 459.221 75.04 458.709 75.04C457.941 75.04 457.221 74.688 456.549 73.984C456.037 73.376 455.781 72.432 455.781 71.152C455.781 69.968 455.717 68.16 455.589 65.728L455.349 62.368L453.189 61.744C451.717 61.328 450.517 60.688 449.589 59.824C448.789 59.088 447.733 57.568 446.421 55.264C445.109 52.96 444.453 51.456 444.453 50.752C444.453 50.048 444.789 49.424 445.461 48.88C446.133 48.336 446.853 48.064 447.621 48.064C448.133 48.064 448.581 48.208 448.965 48.496C449.253 48.688 450.037 49.952 451.317 52.288C452.213 53.92 452.821 54.912 453.141 55.264C453.493 55.616 454.181 55.968 455.205 56.32C456.165 56.672 456.837 56.848 457.221 56.848C457.541 56.848 458.005 56.672 458.613 56.32C459.637 55.776 460.373 55.056 460.821 54.16C461.269 53.232 461.493 51.984 461.493 50.416C461.493 48.976 461.653 47.936 461.973 47.296C462.293 46.656 462.853 46.272 463.653 46.144Z" fill="black"/>
<path d="M504.115 55.744C503.315 55.328 502.499 55.12 501.667 55.12C500.643 55.12 499.811 55.456 499.171 56.128C496.611 58.944 495.331 61.472 495.331 63.712C495.331 65.184 495.891 66.512 497.011 67.696C497.587 68.304 498.051 68.704 498.403 68.896C498.755 69.056 499.267 69.136 499.939 69.136C501.731 69.136 504.099 67.984 507.043 65.68C507.971 64.944 508.611 64.32 508.963 63.808C509.315 63.264 509.491 62.656 509.491 61.984C509.491 61.536 509.459 61.168 509.395 60.88C509.267 60.208 508.643 59.344 507.523 58.288C506.435 57.2 505.299 56.352 504.115 55.744ZM498.115 49.648C498.851 49.264 499.747 49.072 500.803 49.072C502.531 49.072 504.275 49.504 506.035 50.368C507.411 51.04 508.867 52 510.403 53.248C511.939 54.464 513.043 55.552 513.715 56.512C514.675 57.888 515.155 59.632 515.155 61.744C515.155 63.856 514.643 65.648 513.619 67.12C512.915 68.08 511.699 69.216 509.971 70.528C508.243 71.84 506.531 72.928 504.835 73.792C503.203 74.624 501.955 75.04 501.091 75.04C500.931 75.04 500.499 75.008 499.795 74.944C496.659 74.72 494.003 73.184 491.827 70.336C490.451 68.544 489.763 66.864 489.763 65.296C489.763 64.208 489.971 62.816 490.387 61.12C490.963 58.72 491.539 57.04 492.115 56.08C492.723 55.024 493.683 53.792 494.995 52.384C496.307 50.976 497.347 50.064 498.115 49.648Z" fill="black"/>
<path d="M518.711 48.016C518.871 47.568 519.527 46.992 520.679 46.288C521.831 45.552 522.695 45.184 523.271 45.184C524.295 45.184 526.087 45.408 528.647 45.856C531.239 46.304 532.727 46.64 533.111 46.864C533.879 47.376 534.263 48.096 534.263 49.024C534.263 49.44 534.167 49.856 533.975 50.272C533.719 50.88 533.399 51.312 533.015 51.568C532.631 51.792 532.039 51.904 531.239 51.904C530.727 51.904 529.799 51.824 528.455 51.664C527.111 51.472 526.071 51.376 525.335 51.376C525.111 51.376 524.983 51.392 524.951 51.424C524.855 51.52 524.711 52.24 524.519 53.584L524.279 55.456H527.111C530.087 55.456 531.799 56.016 532.247 57.136C532.375 57.488 532.439 57.888 532.439 58.336C532.439 59.104 532.215 59.76 531.767 60.304C531.447 60.688 531.047 60.944 530.567 61.072C530.119 61.2 529.143 61.296 527.639 61.36L524.231 61.552L524.039 66.256C523.943 68.432 523.831 69.808 523.703 70.384C523.607 70.928 523.351 71.376 522.935 71.728C522.391 72.176 521.783 72.4 521.111 72.4C520.343 72.4 519.655 72.096 519.047 71.488C518.631 71.072 518.375 70.656 518.279 70.24C518.183 69.792 518.135 68.768 518.135 67.168C518.135 65.248 518.327 62.4 518.711 58.624C518.935 56.576 519.047 54.896 519.047 53.584C519.047 52.592 518.983 51.76 518.855 51.088C518.727 50.352 518.663 49.552 518.663 48.688C518.663 48.336 518.679 48.112 518.711 48.016Z" fill="black"/>
<path d="M563.497 45.232C564.201 45.104 564.873 45.04 565.513 45.04C565.865 45.04 566.121 45.056 566.281 45.088C567.241 45.216 568.521 45.744 570.121 46.672C571.721 47.568 572.697 48.336 573.049 48.976C573.305 49.424 573.433 49.76 573.433 49.984C573.433 50.24 573.289 50.656 573.001 51.232C572.489 52.32 571.769 52.864 570.841 52.864C570.169 52.864 569.193 52.544 567.913 51.904C566.441 51.136 565.417 50.752 564.841 50.752C564.233 50.752 563.545 51.088 562.777 51.76C562.009 52.432 561.401 53.232 560.953 54.16C560.537 55.024 560.121 56.368 559.705 58.192C559.289 59.984 559.081 61.376 559.081 62.368C559.081 63.104 559.353 63.808 559.897 64.48C560.473 65.152 561.065 65.488 561.673 65.488C562.089 65.488 562.985 65.104 564.361 64.336C565.769 63.568 566.473 63.056 566.473 62.8C566.473 62.736 566.281 62.704 565.897 62.704C565.449 62.704 565.097 62.72 564.841 62.752C564.329 62.816 563.993 62.848 563.833 62.848C563.321 62.848 562.793 62.576 562.249 62.032C561.641 61.424 561.337 60.784 561.337 60.112C561.337 59.472 561.625 58.864 562.201 58.288C563.321 57.168 565.369 56.608 568.345 56.608C570.969 56.608 572.841 57.6 573.961 59.584C574.281 60.192 574.441 60.688 574.441 61.072C574.441 61.36 574.361 61.792 574.201 62.368C573.849 63.68 573.273 64.752 572.473 65.584C571.705 66.416 570.265 67.472 568.153 68.752C566.265 69.904 565.017 70.592 564.409 70.816C563.801 71.04 562.969 71.152 561.913 71.152C560.121 71.12 558.537 70.656 557.161 69.76C555.817 68.864 554.809 67.632 554.137 66.064C553.721 65.104 553.513 63.808 553.513 62.176C553.513 58.56 554.313 55.056 555.913 51.664C556.841 49.712 557.881 48.24 559.033 47.248C560.217 46.256 561.705 45.584 563.497 45.232Z" fill="black"/>
<path d="M591.24 40.384C592.424 40.128 593.288 40 593.832 40C594.696 40 595.384 40.256 595.896 40.768C596.44 41.28 596.712 41.888 596.712 42.592C596.712 43.168 596.52 43.728 596.136 44.272C595.784 44.784 595.288 45.168 594.648 45.424C594.232 45.616 592.728 45.968 590.136 46.48L586.68 47.104L586.2 49.12C585.912 50.496 585.768 51.488 585.768 52.096C585.768 52.8 585.976 53.152 586.392 53.152C586.552 53.152 587.512 52.944 589.272 52.528C591.032 52.112 592.168 51.904 592.68 51.904C592.84 51.904 592.936 51.92 592.968 51.952C594.248 52.368 594.888 53.248 594.888 54.592C594.888 55.552 594.536 56.304 593.832 56.848C593.128 57.36 591.72 57.888 589.608 58.432C587.912 58.88 586.776 59.216 586.2 59.44C585.656 59.664 585.384 59.92 585.384 60.208C585.384 60.368 585.464 60.56 585.624 60.784C585.848 61.136 586.472 61.312 587.496 61.312C588.168 61.312 588.728 61.296 589.176 61.264C589.4 61.264 589.688 61.264 590.04 61.264C590.392 61.232 590.632 61.216 590.76 61.216C591.464 61.216 591.96 61.28 592.248 61.408C592.568 61.504 592.904 61.728 593.256 62.08C593.864 62.688 594.168 63.392 594.168 64.192C594.168 64.832 593.944 65.424 593.496 65.968C593.24 66.32 592.856 66.576 592.344 66.736C591.832 66.864 590.92 66.992 589.608 67.12C588.648 67.216 587.816 67.264 587.112 67.264C584.904 67.264 583.176 66.592 581.928 65.248C580.328 63.616 579.528 61.168 579.528 57.904C579.528 56.176 579.72 54.048 580.104 51.52C580.36 49.984 580.488 48.864 580.488 48.16C580.488 47.648 580.36 47.216 580.104 46.864C579.752 46.384 579.576 45.808 579.576 45.136C579.576 44.368 579.784 43.76 580.2 43.312C580.68 42.768 582.344 42.208 585.192 41.632C586.792 41.312 588.808 40.896 591.24 40.384Z" fill="black"/>
<path d="M622.333 46.816C622.909 46.208 623.581 45.904 624.349 45.904C625.693 45.904 626.589 46.576 627.037 47.92C627.197 48.4 627.277 48.832 627.277 49.216C627.277 49.888 626.717 52.768 625.597 57.856C624.861 61.28 624.093 63.568 623.293 64.72C622.525 65.84 621.341 66.4 619.741 66.4C618.717 66.4 617.245 66.016 615.325 65.248C613.437 64.48 611.885 63.632 610.669 62.704C609.197 61.584 608.317 61.024 608.029 61.024C607.709 61.024 607.549 62.032 607.549 64.048C607.549 65.36 607.501 66.256 607.405 66.736C607.309 67.184 607.085 67.584 606.733 67.936C606.221 68.512 605.581 68.8 604.813 68.8C603.949 68.8 603.261 68.448 602.749 67.744C602.269 67.136 602.029 66.096 602.029 64.624C602.029 63.6 602.045 62.72 602.077 61.984C602.141 59.296 602.333 57.536 602.653 56.704C602.973 55.84 603.677 55.152 604.765 54.64C605.277 54.384 605.805 54.256 606.349 54.256C607.757 54.256 610.109 55.376 613.405 57.616C615.997 59.408 617.773 60.304 618.733 60.304C618.957 60.304 619.469 58.576 620.269 55.12C621.101 51.664 621.517 49.472 621.517 48.544C621.517 48 621.789 47.424 622.333 46.816Z" fill="black"/>
<path d="M644.115 40.384C645.299 40.128 646.163 40 646.707 40C647.571 40 648.259 40.256 648.771 40.768C649.315 41.28 649.587 41.888 649.587 42.592C649.587 43.168 649.395 43.728 649.011 44.272C648.659 44.784 648.163 45.168 647.523 45.424C647.107 45.616 645.603 45.968 643.011 46.48L639.555 47.104L639.075 49.12C638.787 50.496 638.643 51.488 638.643 52.096C638.643 52.8 638.851 53.152 639.267 53.152C639.427 53.152 640.387 52.944 642.147 52.528C643.907 52.112 645.043 51.904 645.555 51.904C645.715 51.904 645.811 51.92 645.843 51.952C647.123 52.368 647.763 53.248 647.763 54.592C647.763 55.552 647.411 56.304 646.707 56.848C646.003 57.36 644.595 57.888 642.483 58.432C640.787 58.88 639.651 59.216 639.075 59.44C638.531 59.664 638.259 59.92 638.259 60.208C638.259 60.368 638.339 60.56 638.499 60.784C638.723 61.136 639.347 61.312 640.371 61.312C641.043 61.312 641.603 61.296 642.051 61.264C642.275 61.264 642.563 61.264 642.915 61.264C643.267 61.232 643.507 61.216 643.635 61.216C644.339 61.216 644.835 61.28 645.123 61.408C645.443 61.504 645.779 61.728 646.131 62.08C646.739 62.688 647.043 63.392 647.043 64.192C647.043 64.832 646.819 65.424 646.371 65.968C646.115 66.32 645.731 66.576 645.219 66.736C644.707 66.864 643.795 66.992 642.483 67.12C641.523 67.216 640.691 67.264 639.987 67.264C637.779 67.264 636.051 66.592 634.803 65.248C633.203 63.616 632.403 61.168 632.403 57.904C632.403 56.176 632.595 54.048 632.979 51.52C633.235 49.984 633.363 48.864 633.363 48.16C633.363 47.648 633.235 47.216 632.979 46.864C632.627 46.384 632.451 45.808 632.451 45.136C632.451 44.368 632.659 43.76 633.075 43.312C633.555 42.768 635.219 42.208 638.067 41.632C639.667 41.312 641.683 40.896 644.115 40.384Z" fill="black"/>
<path d="M660.76 43.36C661.784 42.688 662.632 42.352 663.304 42.352C663.656 42.352 663.928 42.368 664.12 42.4C665.88 42.656 667.576 43.504 669.208 44.944C669.752 45.424 670.024 46.016 670.024 46.72C670.024 47.488 669.72 48.16 669.112 48.736C668.536 49.312 667.928 49.6 667.288 49.6C666.776 49.6 666.216 49.424 665.608 49.072C665.032 48.72 664.488 48.544 663.976 48.544C663.368 48.544 662.936 48.864 662.68 49.504C662.456 50.112 662.344 50.576 662.344 50.896C662.344 51.504 662.888 52.512 663.976 53.92C665.448 55.84 666.472 57.488 667.048 58.864C667.656 60.24 668.008 61.84 668.104 63.664C668.104 63.824 668.104 64.032 668.104 64.288C668.136 64.544 668.152 64.736 668.152 64.864C668.152 66.272 667.944 67.408 667.528 68.272C667.144 69.136 666.424 70.048 665.368 71.008C664.344 71.904 662.936 72.496 661.144 72.784C659.8 73.008 659 73.12 658.744 73.12C658.232 73.12 657.72 72.976 657.208 72.688C655.736 71.888 655 70.912 655 69.76C655 69.152 655.24 68.528 655.72 67.888C656.008 67.504 656.28 67.264 656.536 67.168C656.792 67.04 657.224 66.976 657.832 66.976C657.928 66.976 658.088 66.992 658.312 67.024C658.536 67.024 658.728 67.024 658.888 67.024H659.656C660.392 67.024 660.904 66.976 661.192 66.88C661.48 66.752 661.752 66.512 662.008 66.16C662.392 65.68 662.584 65.072 662.584 64.336C662.584 62.32 661.272 59.664 658.648 56.368C657.176 54.512 656.44 52.784 656.44 51.184C656.44 50.48 656.536 49.744 656.728 48.976C657.368 46.544 658.712 44.672 660.76 43.36Z" fill="black"/>
<path d="M19.6 98.048C19.408 96.608 19.232 95.808 19.072 95.648H19.024C18.768 95.648 18.144 96.272 17.152 97.52C16.192 98.768 15.712 99.552 15.712 99.872C15.712 100.064 16.4 100.16 17.776 100.16H19.84L19.6 98.048ZM25.6 100.544C25.6 100.96 25.904 102.576 26.512 105.392C27.12 108.208 27.424 109.84 27.424 110.288C27.424 111.12 27.184 111.776 26.704 112.256C26.224 112.736 25.568 112.976 24.736 112.976C23.136 112.976 22.064 111.648 21.52 108.992C21.232 107.552 20.944 106.688 20.656 106.4C20.4 106.08 19.68 105.92 18.496 105.92C18.336 105.92 18.032 105.936 17.584 105.968C17.136 105.968 16.752 105.968 16.432 105.968C14.064 106 12.64 106.16 12.16 106.448C11.712 106.736 11.184 107.776 10.576 109.568C10.128 110.88 9.552 111.968 8.848 112.832C8.144 113.664 7.472 114.08 6.832 114.08C6.192 114.08 5.552 113.824 4.912 113.312C4.304 112.768 4 112.208 4 111.632C4 111.088 4.272 110.032 4.816 108.464C5.392 106.864 5.968 105.536 6.544 104.48C7.056 103.52 7.312 102.816 7.312 102.368C7.312 101.952 7.648 101.312 8.32 100.448C9.152 99.488 9.84 98.48 10.384 97.424C11.248 95.984 12.352 94.384 13.696 92.624C15.36 90.48 16.384 88.992 16.768 88.16C17.28 87.168 17.744 86.544 18.16 86.288C18.608 86.032 19.168 85.904 19.84 85.904C20.672 85.904 21.344 86.08 21.856 86.432C22.432 86.816 22.944 87.664 23.392 88.976C23.776 89.968 24.24 91.904 24.784 94.784C25.328 97.664 25.6 99.584 25.6 100.544Z" fill="black"/>
<path d="M51.8955 86.816C52.4715 86.208 53.1435 85.904 53.9115 85.904C55.2555 85.904 56.1515 86.576 56.5995 87.92C56.7595 88.4 56.8395 88.832 56.8395 89.216C56.8395 89.888 56.2795 92.768 55.1595 97.856C54.4235 101.28 53.6555 103.568 52.8555 104.72C52.0875 105.84 50.9035 106.4 49.3035 106.4C48.2795 106.4 46.8075 106.016 44.8875 105.248C42.9995 104.48 41.4475 103.632 40.2315 102.704C38.7595 101.584 37.8795 101.024 37.5915 101.024C37.2715 101.024 37.1115 102.032 37.1115 104.048C37.1115 105.36 37.0635 106.256 36.9675 106.736C36.8715 107.184 36.6475 107.584 36.2955 107.936C35.7835 108.512 35.1435 108.8 34.3755 108.8C33.5115 108.8 32.8235 108.448 32.3115 107.744C31.8315 107.136 31.5915 106.096 31.5915 104.624C31.5915 103.6 31.6075 102.72 31.6395 101.984C31.7035 99.296 31.8955 97.536 32.2155 96.704C32.5355 95.84 33.2395 95.152 34.3275 94.64C34.8395 94.384 35.3675 94.256 35.9115 94.256C37.3195 94.256 39.6715 95.376 42.9675 97.616C45.5595 99.408 47.3355 100.304 48.2955 100.304C48.5195 100.304 49.0315 98.576 49.8315 95.12C50.6635 91.664 51.0795 89.472 51.0795 88.544C51.0795 88 51.3515 87.424 51.8955 86.816Z" fill="black"/>
<path d="M72.1014 87.536C71.8134 87.44 71.5254 87.392 71.2374 87.392C70.4374 87.392 69.6534 87.664 68.8854 88.208C68.1174 88.72 67.6534 89.344 67.4934 90.08C67.3014 90.944 67.2054 91.84 67.2054 92.768C67.2054 94.464 67.4934 96.224 68.0694 98.048C68.7094 99.968 69.0294 101.28 69.0294 101.984C69.0294 102.56 69.1414 102.848 69.3654 102.848C69.5574 102.848 69.8454 102.784 70.2294 102.656C71.1894 102.4 71.9254 102.096 72.4374 101.744C72.9814 101.36 73.5734 100.72 74.2134 99.824C74.7574 99.024 75.0934 98.4 75.2214 97.952C75.3494 97.472 75.4134 96.56 75.4134 95.216C75.4134 93.84 75.3334 92.896 75.1734 92.384C75.0454 91.84 74.6614 91.056 74.0214 90.032C73.1254 88.464 72.4854 87.632 72.1014 87.536ZM66.8694 82.784C68.1814 82.144 69.5574 81.824 70.9974 81.824C73.0454 81.824 74.7414 82.384 76.0854 83.504C77.4294 84.624 78.7414 86.56 80.0214 89.312C80.4694 90.272 80.7574 90.992 80.8854 91.472C81.0134 91.92 81.0774 92.56 81.0774 93.392C81.0774 94.224 81.0614 94.928 81.0294 95.504C80.9654 98.032 80.5974 99.952 79.9254 101.264C79.4134 102.32 78.5814 103.488 77.4294 104.768C76.2774 106.048 75.2694 106.896 74.4054 107.312C73.6694 107.696 72.5014 108.064 70.9014 108.416C69.3334 108.768 68.0374 108.944 67.0134 108.944C65.8294 108.944 64.9494 108.752 64.3734 108.368C63.8294 107.984 63.4774 107.344 63.3174 106.448C63.0934 105.36 62.8214 104.56 62.5014 104.048C62.1814 103.376 61.8134 100.912 61.3974 96.656C61.1414 93.52 61.0134 91.664 61.0134 91.088C61.0134 90.256 61.1574 89.456 61.4454 88.688C61.8614 87.568 62.5814 86.448 63.6054 85.328C64.6614 84.208 65.7494 83.36 66.8694 82.784Z" fill="black"/>
<path d="M120.536 86.816C121.112 86.208 121.784 85.904 122.552 85.904C123.896 85.904 124.792 86.576 125.24 87.92C125.4 88.4 125.48 88.832 125.48 89.216C125.48 89.888 124.92 92.768 123.8 97.856C123.064 101.28 122.296 103.568 121.496 104.72C120.728 105.84 119.544 106.4 117.944 106.4C116.92 106.4 115.448 106.016 113.528 105.248C111.64 104.48 110.088 103.632 108.872 102.704C107.4 101.584 106.52 101.024 106.232 101.024C105.912 101.024 105.752 102.032 105.752 104.048C105.752 105.36 105.704 106.256 105.608 106.736C105.512 107.184 105.288 107.584 104.936 107.936C104.424 108.512 103.784 108.8 103.016 108.8C102.152 108.8 101.464 108.448 100.952 107.744C100.472 107.136 100.232 106.096 100.232 104.624C100.232 103.6 100.248 102.72 100.28 101.984C100.344 99.296 100.536 97.536 100.856 96.704C101.176 95.84 101.88 95.152 102.968 94.64C103.48 94.384 104.008 94.256 104.552 94.256C105.96 94.256 108.312 95.376 111.608 97.616C114.2 99.408 115.976 100.304 116.936 100.304C117.16 100.304 117.672 98.576 118.472 95.12C119.304 91.664 119.72 89.472 119.72 88.544C119.72 88 119.992 87.424 120.536 86.816Z" fill="black"/>
<path d="M130.19 88.256C130.798 88 131.326 87.872 131.774 87.872C132.382 87.872 132.942 88.08 133.454 88.496C133.87 88.816 134.126 89.28 134.222 89.888C134.318 90.496 134.43 92.096 134.558 94.688C134.686 97.664 134.926 99.872 135.278 101.312C135.662 102.72 136.238 103.728 137.006 104.336C137.614 104.784 138.062 105.008 138.35 105.008C138.702 105.008 139.246 104.688 139.982 104.048C141.006 103.088 142.062 101.296 143.15 98.672C144.27 96.016 144.83 93.952 144.83 92.48C144.83 91.904 145.102 91.248 145.646 90.512C146.222 89.84 146.91 89.504 147.71 89.504C148.542 89.504 149.262 89.856 149.87 90.56C150.382 91.104 150.638 91.696 150.638 92.336C150.638 92.496 150.606 92.928 150.542 93.632C150.158 96.736 149.038 100.08 147.182 103.664C146.158 105.744 144.798 107.488 143.102 108.896C141.438 110.304 139.87 111.008 138.398 111.008C137.054 111.008 135.63 110.448 134.126 109.328C132.622 108.208 131.486 106.88 130.718 105.344C130.046 103.968 129.582 102.656 129.326 101.408C129.102 100.128 128.91 98.144 128.75 95.456C128.686 93.984 128.654 93.056 128.654 92.672C128.654 91.264 128.766 90.256 128.99 89.648C129.214 89.008 129.614 88.544 130.19 88.256Z" fill="black"/>
<path d="M163.969 94.016C163.969 93.664 163.714 93.232 163.202 92.72C162.69 92.208 162.049 91.952 161.281 91.952C160.769 91.952 160.45 92.08 160.322 92.336C160.258 92.464 160.225 92.704 160.225 93.056C160.225 93.76 160.289 94.592 160.417 95.552C160.577 96.512 160.722 96.992 160.85 96.992C161.042 96.992 161.474 96.752 162.146 96.272C162.818 95.792 163.266 95.392 163.49 95.072C163.81 94.656 163.969 94.304 163.969 94.016ZM156.242 87.68C157.138 86.88 158.001 86.368 158.833 86.144C159.665 85.92 160.354 85.808 160.898 85.808C161.698 85.808 162.721 86 163.969 86.384C165.761 86.896 167.169 87.872 168.193 89.312C169.249 90.752 169.777 92.336 169.777 94.064C169.777 96.272 168.961 98.128 167.329 99.632C166.657 100.304 166.322 100.704 166.322 100.832C166.322 100.992 166.993 101.392 168.337 102.032C169.713 102.672 171.218 103.296 172.85 103.904C174.194 104.416 175.233 105.024 175.969 105.728C176.705 106.432 177.074 107.168 177.074 107.936C177.074 108.672 176.753 109.36 176.113 110C175.601 110.512 175.106 110.768 174.626 110.768C173.89 110.768 171.633 109.984 167.857 108.416C164.401 106.976 162.53 106.256 162.242 106.256C162.082 106.256 162.001 106.432 162.001 106.784C162.001 107.136 162.065 107.616 162.193 108.224C162.289 108.768 162.337 109.264 162.337 109.712C162.337 111.216 161.633 112.176 160.225 112.592C159.873 112.688 159.554 112.736 159.266 112.736C158.21 112.736 157.346 112 156.674 110.528C156.034 109.056 155.345 106.416 154.609 102.608C154.097 99.952 153.842 97.328 153.842 94.736C153.842 92.496 154.049 90.896 154.465 89.936C154.786 89.2 155.378 88.448 156.242 87.68Z" fill="black"/>
<path d="M177.031 83.744C177.671 83.744 178.807 83.648 180.439 83.456C182.103 83.264 183.863 83.04 185.719 82.784C187.607 82.496 188.759 82.336 189.175 82.304C190.487 82.112 192.055 81.984 193.879 81.92H194.455C195.639 81.92 196.519 82.224 197.095 82.832C197.703 83.408 198.007 84.096 198.007 84.896C198.007 85.536 197.799 86.112 197.383 86.624C196.967 87.136 196.407 87.456 195.703 87.584C195.543 87.616 194.791 87.68 193.447 87.776C192.135 87.84 190.871 87.936 189.655 88.064C188.439 88.192 187.767 88.32 187.639 88.448C187.383 88.704 187.399 89.152 187.687 89.792C187.879 90.368 188.007 92.688 188.071 96.752C188.071 100.816 188.375 104.352 188.983 107.36C189.047 107.584 189.079 107.872 189.079 108.224C189.079 108.672 188.823 109.152 188.311 109.664C187.607 110.304 186.903 110.624 186.199 110.624C185.431 110.624 184.695 110.272 183.991 109.568C183.543 109.12 183.239 108.656 183.079 108.176C182.951 107.696 182.823 106.784 182.695 105.44C182.535 103.84 182.455 101.616 182.455 98.768V96.704C182.455 94.08 182.343 92.24 182.119 91.184L181.687 89.264H178.951C177.735 89.264 176.919 89.216 176.503 89.12C176.119 89.024 175.735 88.768 175.351 88.352C174.743 87.808 174.439 87.216 174.439 86.576C174.439 85.904 174.711 85.264 175.255 84.656C175.831 84.048 176.423 83.744 177.031 83.744Z" fill="black"/>
<path d="M200.753 88.256C201.361 88 201.889 87.872 202.337 87.872C202.945 87.872 203.504 88.08 204.016 88.496C204.432 88.816 204.689 89.28 204.785 89.888C204.881 90.496 204.992 92.096 205.12 94.688C205.248 97.664 205.489 99.872 205.84 101.312C206.225 102.72 206.8 103.728 207.568 104.336C208.176 104.784 208.625 105.008 208.913 105.008C209.265 105.008 209.808 104.688 210.544 104.048C211.568 103.088 212.624 101.296 213.712 98.672C214.832 96.016 215.393 93.952 215.393 92.48C215.393 91.904 215.664 91.248 216.208 90.512C216.784 89.84 217.473 89.504 218.273 89.504C219.105 89.504 219.824 89.856 220.432 90.56C220.944 91.104 221.201 91.696 221.201 92.336C221.201 92.496 221.169 92.928 221.105 93.632C220.721 96.736 219.601 100.08 217.745 103.664C216.721 105.744 215.361 107.488 213.665 108.896C212.001 110.304 210.432 111.008 208.96 111.008C207.616 111.008 206.193 110.448 204.689 109.328C203.185 108.208 202.049 106.88 201.281 105.344C200.609 103.968 200.145 102.656 199.889 101.408C199.665 100.128 199.473 98.144 199.312 95.456C199.248 93.984 199.217 93.056 199.217 92.672C199.217 91.264 199.329 90.256 199.553 89.648C199.777 89.008 200.177 88.544 200.753 88.256Z" fill="black"/>
<path d="M235.532 94.016C235.532 93.664 235.276 93.232 234.764 92.72C234.252 92.208 233.612 91.952 232.844 91.952C232.332 91.952 232.012 92.08 231.884 92.336C231.82 92.464 231.788 92.704 231.788 93.056C231.788 93.76 231.852 94.592 231.98 95.552C232.14 96.512 232.284 96.992 232.412 96.992C232.604 96.992 233.036 96.752 233.708 96.272C234.38 95.792 234.828 95.392 235.052 95.072C235.372 94.656 235.532 94.304 235.532 94.016ZM227.804 87.68C228.7 86.88 229.564 86.368 230.396 86.144C231.228 85.92 231.916 85.808 232.46 85.808C233.26 85.808 234.284 86 235.532 86.384C237.324 86.896 238.732 87.872 239.756 89.312C240.812 90.752 241.34 92.336 241.34 94.064C241.34 96.272 240.524 98.128 238.892 99.632C238.22 100.304 237.884 100.704 237.884 100.832C237.884 100.992 238.556 101.392 239.9 102.032C241.276 102.672 242.78 103.296 244.412 103.904C245.756 104.416 246.796 105.024 247.532 105.728C248.268 106.432 248.636 107.168 248.636 107.936C248.636 108.672 248.316 109.36 247.676 110C247.164 110.512 246.668 110.768 246.188 110.768C245.452 110.768 243.196 109.984 239.42 108.416C235.964 106.976 234.092 106.256 233.804 106.256C233.644 106.256 233.564 106.432 233.564 106.784C233.564 107.136 233.628 107.616 233.756 108.224C233.852 108.768 233.9 109.264 233.9 109.712C233.9 111.216 233.196 112.176 231.788 112.592C231.436 112.688 231.116 112.736 230.828 112.736C229.772 112.736 228.908 112 228.236 110.528C227.596 109.056 226.908 106.416 226.172 102.608C225.66 99.952 225.404 97.328 225.404 94.736C225.404 92.496 225.612 90.896 226.028 89.936C226.348 89.2 226.94 88.448 227.804 87.68Z" fill="black"/>
<path d="M263.521 80.384C264.705 80.128 265.569 80 266.113 80C266.977 80 267.665 80.256 268.177 80.768C268.721 81.28 268.993 81.888 268.993 82.592C268.993 83.168 268.801 83.728 268.417 84.272C268.065 84.784 267.569 85.168 266.929 85.424C266.513 85.616 265.009 85.968 262.417 86.48L258.961 87.104L258.481 89.12C258.193 90.496 258.049 91.488 258.049 92.096C258.049 92.8 258.257 93.152 258.673 93.152C258.833 93.152 259.793 92.944 261.553 92.528C263.313 92.112 264.449 91.904 264.961 91.904C265.121 91.904 265.217 91.92 265.249 91.952C266.529 92.368 267.169 93.248 267.169 94.592C267.169 95.552 266.817 96.304 266.113 96.848C265.409 97.36 264.001 97.888 261.889 98.432C260.193 98.88 259.057 99.216 258.481 99.44C257.937 99.664 257.665 99.92 257.665 100.208C257.665 100.368 257.745 100.56 257.905 100.784C258.129 101.136 258.753 101.312 259.777 101.312C260.449 101.312 261.009 101.296 261.457 101.264C261.681 101.264 261.969 101.264 262.321 101.264C262.673 101.232 262.913 101.216 263.041 101.216C263.745 101.216 264.241 101.28 264.529 101.408C264.849 101.504 265.185 101.728 265.537 102.08C266.145 102.688 266.449 103.392 266.449 104.192C266.449 104.832 266.225 105.424 265.777 105.968C265.521 106.32 265.137 106.576 264.625 106.736C264.113 106.864 263.201 106.992 261.889 107.12C260.929 107.216 260.097 107.264 259.393 107.264C257.185 107.264 255.457 106.592 254.209 105.248C252.609 103.616 251.809 101.168 251.809 97.904C251.809 96.176 252.001 94.048 252.385 91.52C252.641 89.984 252.769 88.864 252.769 88.16C252.769 87.648 252.641 87.216 252.385 86.864C252.033 86.384 251.857 85.808 251.857 85.136C251.857 84.368 252.065 83.76 252.481 83.312C252.961 82.768 254.625 82.208 257.473 81.632C259.073 81.312 261.089 80.896 263.521 80.384Z" fill="black"/>
<path d="M284.398 87.536C284.11 87.44 283.822 87.392 283.534 87.392C282.734 87.392 281.95 87.664 281.182 88.208C280.414 88.72 279.95 89.344 279.79 90.08C279.598 90.944 279.502 91.84 279.502 92.768C279.502 94.464 279.79 96.224 280.366 98.048C281.006 99.968 281.326 101.28 281.326 101.984C281.326 102.56 281.438 102.848 281.662 102.848C281.854 102.848 282.142 102.784 282.526 102.656C283.486 102.4 284.222 102.096 284.734 101.744C285.278 101.36 285.87 100.72 286.51 99.824C287.054 99.024 287.39 98.4 287.518 97.952C287.646 97.472 287.71 96.56 287.71 95.216C287.71 93.84 287.63 92.896 287.47 92.384C287.342 91.84 286.958 91.056 286.318 90.032C285.422 88.464 284.782 87.632 284.398 87.536ZM279.166 82.784C280.478 82.144 281.854 81.824 283.294 81.824C285.342 81.824 287.038 82.384 288.382 83.504C289.726 84.624 291.038 86.56 292.318 89.312C292.766 90.272 293.054 90.992 293.182 91.472C293.31 91.92 293.374 92.56 293.374 93.392C293.374 94.224 293.358 94.928 293.326 95.504C293.262 98.032 292.894 99.952 292.222 101.264C291.71 102.32 290.878 103.488 289.726 104.768C288.574 106.048 287.566 106.896 286.702 107.312C285.966 107.696 284.798 108.064 283.198 108.416C281.63 108.768 280.334 108.944 279.31 108.944C278.126 108.944 277.246 108.752 276.67 108.368C276.126 107.984 275.774 107.344 275.614 106.448C275.39 105.36 275.118 104.56 274.798 104.048C274.478 103.376 274.11 100.912 273.694 96.656C273.438 93.52 273.31 91.664 273.31 91.088C273.31 90.256 273.454 89.456 273.742 88.688C274.158 87.568 274.878 86.448 275.902 85.328C276.958 84.208 278.046 83.36 279.166 82.784Z" fill="black"/>
<path d="M331.225 98.048C331.033 96.608 330.857 95.808 330.697 95.648H330.649C330.393 95.648 329.769 96.272 328.777 97.52C327.817 98.768 327.337 99.552 327.337 99.872C327.337 100.064 328.025 100.16 329.401 100.16H331.465L331.225 98.048ZM337.225 100.544C337.225 100.96 337.529 102.576 338.137 105.392C338.745 108.208 339.049 109.84 339.049 110.288C339.049 111.12 338.809 111.776 338.329 112.256C337.849 112.736 337.193 112.976 336.361 112.976C334.761 112.976 333.689 111.648 333.145 108.992C332.857 107.552 332.569 106.688 332.281 106.4C332.025 106.08 331.305 105.92 330.121 105.92C329.961 105.92 329.657 105.936 329.209 105.968C328.761 105.968 328.377 105.968 328.057 105.968C325.689 106 324.265 106.16 323.785 106.448C323.337 106.736 322.809 107.776 322.201 109.568C321.753 110.88 321.177 111.968 320.473 112.832C319.769 113.664 319.097 114.08 318.457 114.08C317.817 114.08 317.177 113.824 316.537 113.312C315.929 112.768 315.625 112.208 315.625 111.632C315.625 111.088 315.897 110.032 316.441 108.464C317.017 106.864 317.593 105.536 318.169 104.48C318.681 103.52 318.937 102.816 318.937 102.368C318.937 101.952 319.273 101.312 319.945 100.448C320.777 99.488 321.465 98.48 322.009 97.424C322.873 95.984 323.977 94.384 325.321 92.624C326.985 90.48 328.009 88.992 328.393 88.16C328.905 87.168 329.369 86.544 329.785 86.288C330.233 86.032 330.793 85.904 331.465 85.904C332.297 85.904 332.969 86.08 333.481 86.432C334.057 86.816 334.569 87.664 335.017 88.976C335.401 89.968 335.865 91.904 336.409 94.784C336.953 97.664 337.225 99.584 337.225 100.544Z" fill="black"/>
<path d="M350.073 83.36C351.097 82.688 351.944 82.352 352.616 82.352C352.968 82.352 353.24 82.368 353.432 82.4C355.192 82.656 356.889 83.504 358.521 84.944C359.065 85.424 359.336 86.016 359.336 86.72C359.336 87.488 359.032 88.16 358.424 88.736C357.848 89.312 357.24 89.6 356.6 89.6C356.088 89.6 355.529 89.424 354.921 89.072C354.345 88.72 353.801 88.544 353.289 88.544C352.681 88.544 352.248 88.864 351.992 89.504C351.768 90.112 351.656 90.576 351.656 90.896C351.656 91.504 352.201 92.512 353.289 93.92C354.761 95.84 355.785 97.488 356.361 98.864C356.969 100.24 357.321 101.84 357.417 103.664C357.417 103.824 357.417 104.032 357.417 104.288C357.449 104.544 357.465 104.736 357.465 104.864C357.465 106.272 357.257 107.408 356.841 108.272C356.457 109.136 355.737 110.048 354.681 111.008C353.657 111.904 352.249 112.496 350.457 112.784C349.113 113.008 348.312 113.12 348.056 113.12C347.544 113.12 347.033 112.976 346.521 112.688C345.049 111.888 344.312 110.912 344.312 109.76C344.312 109.152 344.553 108.528 345.033 107.888C345.321 107.504 345.593 107.264 345.849 107.168C346.105 107.04 346.537 106.976 347.145 106.976C347.241 106.976 347.401 106.992 347.625 107.024C347.849 107.024 348.041 107.024 348.201 107.024H348.969C349.705 107.024 350.216 106.976 350.504 106.88C350.792 106.752 351.064 106.512 351.32 106.16C351.704 105.68 351.897 105.072 351.897 104.336C351.897 102.32 350.585 99.664 347.961 96.368C346.489 94.512 345.753 92.784 345.753 91.184C345.753 90.48 345.848 89.744 346.04 88.976C346.68 86.544 348.025 84.672 350.073 83.36Z" fill="black"/>
<path d="M399.591 86.432C400.615 85.888 401.495 85.616 402.231 85.616C403.671 85.616 404.951 86.864 406.071 89.36C406.647 90.608 407.127 93.824 407.511 99.008C407.799 102.56 407.943 104.768 407.943 105.632C407.943 106.464 407.815 107.088 407.559 107.504C407.047 108.304 406.327 108.704 405.399 108.704C404.183 108.704 403.319 108.08 402.807 106.832C402.455 106.096 402.135 103.744 401.847 99.776C401.559 95.872 401.351 93.728 401.223 93.344C401.159 93.248 401.111 93.2 401.079 93.2C400.887 93.2 400.535 93.552 400.023 94.256C399.159 95.472 397.799 96.912 395.943 98.576C394.087 100.208 392.791 101.152 392.055 101.408C391.383 101.632 390.599 101.744 389.703 101.744C387.911 101.744 386.439 101.36 385.287 100.592C384.327 99.92 383.767 99.584 383.607 99.584C383.479 99.584 383.415 99.712 383.415 99.968C383.415 100.64 383.783 102.224 384.519 104.72C385.223 107.152 385.575 108.928 385.575 110.048C385.575 111.04 385.319 111.808 384.807 112.352C384.231 112.928 383.623 113.216 382.983 113.216C382.279 113.216 381.623 112.912 381.015 112.304C380.439 111.664 380.087 110.832 379.959 109.808C379.799 108.88 379.463 107.696 378.951 106.256C378.055 103.952 377.607 100.96 377.607 97.28C377.607 93.824 378.023 91.68 378.855 90.848C379.399 90.304 380.119 90.032 381.015 90.032C381.623 90.032 382.215 90.176 382.791 90.464C383.463 90.848 384.599 91.888 386.199 93.584C387.927 95.376 388.999 96.272 389.415 96.272C389.927 96.272 390.871 95.616 392.247 94.304C393.655 92.992 394.887 91.6 395.943 90.128C397.287 88.272 398.503 87.04 399.591 86.432Z" fill="black"/>
<path d="M427.741 98.048C427.549 96.608 427.373 95.808 427.213 95.648H427.165C426.909 95.648 426.285 96.272 425.293 97.52C424.333 98.768 423.853 99.552 423.853 99.872C423.853 100.064 424.541 100.16 425.917 100.16H427.981L427.741 98.048ZM433.741 100.544C433.741 100.96 434.045 102.576 434.653 105.392C435.261 108.208 435.565 109.84 435.565 110.288C435.565 111.12 435.325 111.776 434.845 112.256C434.365 112.736 433.709 112.976 432.877 112.976C431.277 112.976 430.205 111.648 429.661 108.992C429.373 107.552 429.085 106.688 428.797 106.4C428.541 106.08 427.821 105.92 426.637 105.92C426.477 105.92 426.173 105.936 425.725 105.968C425.277 105.968 424.893 105.968 424.573 105.968C422.205 106 420.781 106.16 420.301 106.448C419.853 106.736 419.325 107.776 418.717 109.568C418.269 110.88 417.693 111.968 416.989 112.832C416.285 113.664 415.613 114.08 414.973 114.08C414.333 114.08 413.693 113.824 413.053 113.312C412.445 112.768 412.141 112.208 412.141 111.632C412.141 111.088 412.413 110.032 412.957 108.464C413.533 106.864 414.109 105.536 414.685 104.48C415.197 103.52 415.453 102.816 415.453 102.368C415.453 101.952 415.789 101.312 416.461 100.448C417.293 99.488 417.981 98.48 418.525 97.424C419.389 95.984 420.493 94.384 421.837 92.624C423.501 90.48 424.525 88.992 424.909 88.16C425.421 87.168 425.885 86.544 426.301 86.288C426.749 86.032 427.309 85.904 427.981 85.904C428.813 85.904 429.485 86.08 429.997 86.432C430.573 86.816 431.085 87.664 431.533 88.976C431.917 89.968 432.381 91.904 432.925 94.784C433.469 97.664 433.741 99.584 433.741 100.544Z" fill="black"/>
<path d="M449.724 85.136C450.716 84.976 451.484 84.896 452.028 84.896C452.476 84.896 453.084 85.056 453.852 85.376C455.004 85.856 455.9 86.48 456.54 87.248C457.212 87.984 457.548 88.752 457.548 89.552C457.548 90.32 457.244 91.008 456.636 91.616C456.124 92.128 455.5 92.384 454.764 92.384C453.932 92.384 453.068 92.048 452.172 91.376C451.596 90.96 451.052 90.752 450.54 90.752C449.708 90.752 448.508 91.376 446.94 92.624C445.948 93.424 445.244 94.176 444.828 94.88C444.412 95.584 444.204 96.416 444.204 97.376C444.204 97.856 444.252 98.384 444.348 98.96C444.732 101.424 445.868 102.656 447.756 102.656C448.428 102.656 449.26 102.48 450.252 102.128C451.084 101.808 451.676 101.648 452.028 101.648C452.316 101.648 452.684 101.776 453.132 102.032C453.74 102.352 454.172 102.864 454.428 103.568C454.556 103.856 454.62 104.192 454.62 104.576C454.62 105.6 454.06 106.432 452.94 107.072C451.852 107.712 450.332 108.064 448.38 108.128C448.284 108.128 448.14 108.144 447.948 108.176C447.756 108.176 447.612 108.176 447.516 108.176C445.756 108.176 444.252 107.808 443.004 107.072C441.788 106.304 440.7 105.104 439.74 103.472C439.292 102.704 439.004 102.032 438.876 101.456C438.78 100.88 438.732 99.712 438.732 97.952C438.732 96.32 438.78 95.184 438.876 94.544C439.004 93.904 439.244 93.216 439.596 92.48C440.172 91.392 440.764 90.512 441.372 89.84C441.98 89.136 442.86 88.368 444.012 87.536C445.1 86.736 446.012 86.192 446.748 85.904C447.484 85.584 448.476 85.328 449.724 85.136Z" fill="black"/>
<path d="M473.778 83.888C474.45 83.312 475.09 83.024 475.698 83.024C476.338 83.024 476.946 83.328 477.522 83.936C477.97 84.384 478.226 84.848 478.29 85.328C478.386 85.808 478.434 87.056 478.434 89.072C478.434 90.928 478.466 92.16 478.53 92.768C478.626 93.376 478.834 93.888 479.154 94.304C479.634 94.88 479.874 95.472 479.874 96.08C479.874 96.72 479.634 97.328 479.154 97.904C478.706 98.48 478.482 99.152 478.482 99.92C478.482 100.656 478.514 101.296 478.578 101.84C478.674 102.736 478.722 103.392 478.722 103.808C478.722 104.48 478.45 105.088 477.906 105.632C477.298 106.24 476.642 106.544 475.938 106.544C475.234 106.544 474.594 106.24 474.018 105.632C473.474 104.992 473.138 104.144 473.01 103.088C472.882 101.968 472.674 101.408 472.386 101.408C472.098 101.408 471.234 101.696 469.794 102.272L467.586 103.088L467.538 106.736C467.538 108.496 467.49 109.584 467.394 110C467.298 110.384 467.01 110.784 466.53 111.2C465.794 111.808 465.266 112.112 464.946 112.112C464.498 112.112 463.938 111.904 463.266 111.488C462.626 111.072 462.242 110.688 462.114 110.336C461.986 109.792 461.89 106.4 461.826 100.16L461.73 90.608L462.738 89.792C463.41 89.216 463.954 88.928 464.37 88.928C464.658 88.928 465.106 89.056 465.714 89.312C466.322 89.6 466.818 90.24 467.202 91.232C467.586 92.192 467.778 93.312 467.778 94.592C467.778 95.008 467.778 95.312 467.778 95.504C467.778 95.664 467.794 95.84 467.826 96.032C467.89 96.224 467.954 96.352 468.018 96.416C468.114 96.48 468.226 96.512 468.354 96.512C468.642 96.512 469.426 96.208 470.706 95.6L472.722 94.592V84.8L473.778 83.888Z" fill="black"/>
<path d="M485.9 81.008C486.444 80.336 487.116 80 487.916 80C488.652 80 489.308 80.272 489.884 80.816C490.492 81.36 490.796 82.032 490.796 82.832C490.796 83.632 490.54 84.288 490.028 84.8C489.516 85.312 488.892 85.568 488.156 85.568C487.356 85.568 486.652 85.264 486.044 84.656C485.468 84.08 485.18 83.472 485.18 82.832C485.18 82.224 485.42 81.616 485.9 81.008ZM487.292 92.096C487.868 91.936 488.332 91.856 488.684 91.856C489.868 91.856 490.652 92.352 491.036 93.344C491.196 93.76 491.276 94.176 491.276 94.592C491.276 95.072 491.132 96.064 490.844 97.568C490.396 99.904 490.092 102.608 489.932 105.68C489.804 107.984 489.676 109.44 489.548 110.048C489.452 110.624 489.212 111.12 488.828 111.536C488.252 112.144 487.516 112.448 486.62 112.448C485.852 112.448 485.228 112.208 484.748 111.728C484.428 111.408 484.22 111.024 484.124 110.576C484.06 110.128 484.028 109.248 484.028 107.936C484.028 106.24 484.204 103.84 484.556 100.736C484.908 97.632 485.228 95.68 485.516 94.88C486.156 93.152 486.748 92.224 487.292 92.096Z" fill="black"/>
<path d="M516.661 86.816C517.237 86.208 517.909 85.904 518.677 85.904C520.021 85.904 520.917 86.576 521.365 87.92C521.525 88.4 521.605 88.832 521.605 89.216C521.605 89.888 521.045 92.768 519.925 97.856C519.189 101.28 518.421 103.568 517.621 104.72C516.853 105.84 515.669 106.4 514.069 106.4C513.045 106.4 511.573 106.016 509.653 105.248C507.765 104.48 506.213 103.632 504.997 102.704C503.525 101.584 502.645 101.024 502.357 101.024C502.037 101.024 501.877 102.032 501.877 104.048C501.877 105.36 501.829 106.256 501.733 106.736C501.637 107.184 501.413 107.584 501.061 107.936C500.549 108.512 499.909 108.8 499.141 108.8C498.277 108.8 497.589 108.448 497.077 107.744C496.597 107.136 496.357 106.096 496.357 104.624C496.357 103.6 496.373 102.72 496.405 101.984C496.469 99.296 496.661 97.536 496.981 96.704C497.301 95.84 498.005 95.152 499.093 94.64C499.605 94.384 500.133 94.256 500.677 94.256C502.085 94.256 504.437 95.376 507.733 97.616C510.325 99.408 512.101 100.304 513.061 100.304C513.285 100.304 513.797 98.576 514.597 95.12C515.429 91.664 515.845 89.472 515.845 88.544C515.845 88 516.117 87.424 516.661 86.816Z" fill="black"/>
<path d="M538.443 80.384C539.627 80.128 540.491 80 541.035 80C541.899 80 542.587 80.256 543.099 80.768C543.643 81.28 543.915 81.888 543.915 82.592C543.915 83.168 543.723 83.728 543.339 84.272C542.987 84.784 542.491 85.168 541.851 85.424C541.435 85.616 539.931 85.968 537.339 86.48L533.883 87.104L533.403 89.12C533.115 90.496 532.971 91.488 532.971 92.096C532.971 92.8 533.179 93.152 533.595 93.152C533.755 93.152 534.715 92.944 536.475 92.528C538.235 92.112 539.371 91.904 539.883 91.904C540.043 91.904 540.139 91.92 540.171 91.952C541.451 92.368 542.091 93.248 542.091 94.592C542.091 95.552 541.739 96.304 541.035 96.848C540.331 97.36 538.923 97.888 536.811 98.432C535.115 98.88 533.979 99.216 533.403 99.44C532.859 99.664 532.587 99.92 532.587 100.208C532.587 100.368 532.667 100.56 532.827 100.784C533.051 101.136 533.675 101.312 534.699 101.312C535.371 101.312 535.931 101.296 536.379 101.264C536.603 101.264 536.891 101.264 537.243 101.264C537.595 101.232 537.835 101.216 537.963 101.216C538.667 101.216 539.163 101.28 539.451 101.408C539.771 101.504 540.107 101.728 540.459 102.08C541.067 102.688 541.371 103.392 541.371 104.192C541.371 104.832 541.147 105.424 540.699 105.968C540.443 106.32 540.059 106.576 539.547 106.736C539.035 106.864 538.123 106.992 536.811 107.12C535.851 107.216 535.019 107.264 534.315 107.264C532.107 107.264 530.379 106.592 529.131 105.248C527.531 103.616 526.731 101.168 526.731 97.904C526.731 96.176 526.923 94.048 527.307 91.52C527.563 89.984 527.691 88.864 527.691 88.16C527.691 87.648 527.563 87.216 527.307 86.864C526.955 86.384 526.779 85.808 526.779 85.136C526.779 84.368 526.987 83.76 527.403 83.312C527.883 82.768 529.547 82.208 532.395 81.632C533.995 81.312 536.011 80.896 538.443 80.384Z" fill="black"/>
<path d="M554.088 83.36C555.112 82.688 555.96 82.352 556.632 82.352C556.984 82.352 557.256 82.368 557.448 82.4C559.208 82.656 560.904 83.504 562.536 84.944C563.08 85.424 563.352 86.016 563.352 86.72C563.352 87.488 563.048 88.16 562.44 88.736C561.864 89.312 561.256 89.6 560.616 89.6C560.104 89.6 559.544 89.424 558.936 89.072C558.36 88.72 557.816 88.544 557.304 88.544C556.696 88.544 556.264 88.864 556.008 89.504C555.784 90.112 555.672 90.576 555.672 90.896C555.672 91.504 556.216 92.512 557.304 93.92C558.776 95.84 559.8 97.488 560.376 98.864C560.984 100.24 561.336 101.84 561.432 103.664C561.432 103.824 561.432 104.032 561.432 104.288C561.464 104.544 561.48 104.736 561.48 104.864C561.48 106.272 561.272 107.408 560.856 108.272C560.472 109.136 559.752 110.048 558.696 111.008C557.672 111.904 556.264 112.496 554.472 112.784C553.128 113.008 552.328 113.12 552.072 113.12C551.56 113.12 551.048 112.976 550.536 112.688C549.064 111.888 548.328 110.912 548.328 109.76C548.328 109.152 548.568 108.528 549.048 107.888C549.336 107.504 549.608 107.264 549.864 107.168C550.12 107.04 550.552 106.976 551.16 106.976C551.256 106.976 551.416 106.992 551.64 107.024C551.864 107.024 552.056 107.024 552.216 107.024H552.984C553.72 107.024 554.232 106.976 554.52 106.88C554.808 106.752 555.08 106.512 555.336 106.16C555.72 105.68 555.912 105.072 555.912 104.336C555.912 102.32 554.6 99.664 551.976 96.368C550.504 94.512 549.768 92.784 549.768 91.184C549.768 90.48 549.864 89.744 550.056 88.976C550.696 86.544 552.04 84.672 554.088 83.36Z" fill="black"/>
<path d="M600.975 95.744C600.175 95.328 599.359 95.12 598.527 95.12C597.503 95.12 596.671 95.456 596.031 96.128C593.471 98.944 592.191 101.472 592.191 103.712C592.191 105.184 592.751 106.512 593.871 107.696C594.447 108.304 594.911 108.704 595.263 108.896C595.615 109.056 596.127 109.136 596.799 109.136C598.591 109.136 600.959 107.984 603.903 105.68C604.831 104.944 605.471 104.32 605.823 103.808C606.175 103.264 606.351 102.656 606.351 101.984C606.351 101.536 606.319 101.168 606.255 100.88C606.127 100.208 605.503 99.344 604.383 98.288C603.295 97.2 602.159 96.352 600.975 95.744ZM594.975 89.648C595.711 89.264 596.607 89.072 597.663 89.072C599.391 89.072 601.135 89.504 602.895 90.368C604.271 91.04 605.727 92 607.263 93.248C608.799 94.464 609.903 95.552 610.575 96.512C611.535 97.888 612.015 99.632 612.015 101.744C612.015 103.856 611.503 105.648 610.479 107.12C609.775 108.08 608.559 109.216 606.831 110.528C605.103 111.84 603.391 112.928 601.695 113.792C600.063 114.624 598.815 115.04 597.951 115.04C597.791 115.04 597.359 115.008 596.655 114.944C593.519 114.72 590.863 113.184 588.687 110.336C587.311 108.544 586.623 106.864 586.623 105.296C586.623 104.208 586.831 102.816 587.247 101.12C587.823 98.72 588.399 97.04 588.975 96.08C589.583 95.024 590.543 93.792 591.855 92.384C593.167 90.976 594.207 90.064 594.975 89.648Z" fill="black"/>
<path d="M616.57 88.016C616.73 87.568 617.386 86.992 618.538 86.288C619.69 85.552 620.554 85.184 621.13 85.184C622.154 85.184 623.946 85.408 626.506 85.856C629.098 86.304 630.586 86.64 630.97 86.864C631.738 87.376 632.122 88.096 632.122 89.024C632.122 89.44 632.026 89.856 631.834 90.272C631.578 90.88 631.258 91.312 630.874 91.568C630.49 91.792 629.898 91.904 629.098 91.904C628.586 91.904 627.658 91.824 626.314 91.664C624.97 91.472 623.93 91.376 623.194 91.376C622.97 91.376 622.842 91.392 622.81 91.424C622.714 91.52 622.57 92.24 622.378 93.584L622.138 95.456H624.97C627.946 95.456 629.658 96.016 630.106 97.136C630.234 97.488 630.298 97.888 630.298 98.336C630.298 99.104 630.074 99.76 629.626 100.304C629.306 100.688 628.906 100.944 628.426 101.072C627.978 101.2 627.002 101.296 625.498 101.36L622.09 101.552L621.898 106.256C621.802 108.432 621.69 109.808 621.562 110.384C621.466 110.928 621.21 111.376 620.794 111.728C620.25 112.176 619.642 112.4 618.97 112.4C618.202 112.4 617.514 112.096 616.906 111.488C616.49 111.072 616.234 110.656 616.138 110.24C616.042 109.792 615.994 108.768 615.994 107.168C615.994 105.248 616.186 102.4 616.57 98.624C616.794 96.576 616.906 94.896 616.906 93.584C616.906 92.592 616.842 91.76 616.714 91.088C616.586 90.352 616.522 89.552 616.522 88.688C616.522 88.336 616.538 88.112 616.57 88.016Z" fill="black"/>
<path d="M671.357 86.432C672.381 85.888 673.261 85.616 673.997 85.616C675.437 85.616 676.717 86.864 677.837 89.36C678.413 90.608 678.893 93.824 679.277 99.008C679.565 102.56 679.709 104.768 679.709 105.632C679.709 106.464 679.581 107.088 679.325 107.504C678.813 108.304 678.093 108.704 677.165 108.704C675.949 108.704 675.085 108.08 674.573 106.832C674.221 106.096 673.901 103.744 673.613 99.776C673.325 95.872 673.117 93.728 672.989 93.344C672.925 93.248 672.877 93.2 672.845 93.2C672.653 93.2 672.301 93.552 671.789 94.256C670.925 95.472 669.565 96.912 667.709 98.576C665.853 100.208 664.557 101.152 663.821 101.408C663.149 101.632 662.365 101.744 661.469 101.744C659.677 101.744 658.205 101.36 657.053 100.592C656.093 99.92 655.533 99.584 655.373 99.584C655.245 99.584 655.181 99.712 655.181 99.968C655.181 100.64 655.549 102.224 656.285 104.72C656.989 107.152 657.341 108.928 657.341 110.048C657.341 111.04 657.085 111.808 656.573 112.352C655.997 112.928 655.389 113.216 654.749 113.216C654.045 113.216 653.389 112.912 652.781 112.304C652.205 111.664 651.853 110.832 651.725 109.808C651.565 108.88 651.229 107.696 650.717 106.256C649.821 103.952 649.373 100.96 649.373 97.28C649.373 93.824 649.789 91.68 650.621 90.848C651.165 90.304 651.885 90.032 652.781 90.032C653.389 90.032 653.981 90.176 654.557 90.464C655.229 90.848 656.365 91.888 657.965 93.584C659.693 95.376 660.765 96.272 661.181 96.272C661.693 96.272 662.637 95.616 664.013 94.304C665.421 92.992 666.653 91.6 667.709 90.128C669.053 88.272 670.269 87.04 671.357 86.432Z" fill="black"/>
<path d="M696.474 80.384C697.658 80.128 698.522 80 699.066 80C699.93 80 700.618 80.256 701.13 80.768C701.674 81.28 701.946 81.888 701.946 82.592C701.946 83.168 701.754 83.728 701.37 84.272C701.018 84.784 700.522 85.168 699.882 85.424C699.466 85.616 697.962 85.968 695.37 86.48L691.914 87.104L691.434 89.12C691.146 90.496 691.002 91.488 691.002 92.096C691.002 92.8 691.21 93.152 691.626 93.152C691.786 93.152 692.746 92.944 694.506 92.528C696.266 92.112 697.402 91.904 697.914 91.904C698.074 91.904 698.17 91.92 698.202 91.952C699.482 92.368 700.122 93.248 700.122 94.592C700.122 95.552 699.77 96.304 699.066 96.848C698.362 97.36 696.954 97.888 694.842 98.432C693.146 98.88 692.01 99.216 691.434 99.44C690.89 99.664 690.618 99.92 690.618 100.208C690.618 100.368 690.698 100.56 690.858 100.784C691.082 101.136 691.706 101.312 692.73 101.312C693.402 101.312 693.962 101.296 694.41 101.264C694.634 101.264 694.922 101.264 695.274 101.264C695.626 101.232 695.866 101.216 695.994 101.216C696.698 101.216 697.194 101.28 697.482 101.408C697.802 101.504 698.138 101.728 698.49 102.08C699.098 102.688 699.402 103.392 699.402 104.192C699.402 104.832 699.178 105.424 698.73 105.968C698.474 106.32 698.09 106.576 697.578 106.736C697.066 106.864 696.154 106.992 694.842 107.12C693.882 107.216 693.05 107.264 692.346 107.264C690.138 107.264 688.41 106.592 687.162 105.248C685.562 103.616 684.762 101.168 684.762 97.904C684.762 96.176 684.954 94.048 685.338 91.52C685.594 89.984 685.722 88.864 685.722 88.16C685.722 87.648 685.594 87.216 685.338 86.864C684.986 86.384 684.81 85.808 684.81 85.136C684.81 84.368 685.018 83.76 685.434 83.312C685.914 82.768 687.578 82.208 690.426 81.632C692.026 81.312 694.042 80.896 696.474 80.384Z" fill="black"/>
<path d="M729.247 86.432C730.271 85.888 731.151 85.616 731.887 85.616C733.327 85.616 734.607 86.864 735.727 89.36C736.303 90.608 736.783 93.824 737.167 99.008C737.455 102.56 737.599 104.768 737.599 105.632C737.599 106.464 737.471 107.088 737.215 107.504C736.703 108.304 735.983 108.704 735.055 108.704C733.839 108.704 732.975 108.08 732.463 106.832C732.111 106.096 731.791 103.744 731.503 99.776C731.215 95.872 731.007 93.728 730.879 93.344C730.815 93.248 730.767 93.2 730.735 93.2C730.543 93.2 730.191 93.552 729.679 94.256C728.815 95.472 727.455 96.912 725.599 98.576C723.743 100.208 722.447 101.152 721.711 101.408C721.039 101.632 720.255 101.744 719.359 101.744C717.567 101.744 716.095 101.36 714.943 100.592C713.983 99.92 713.423 99.584 713.263 99.584C713.135 99.584 713.071 99.712 713.071 99.968C713.071 100.64 713.439 102.224 714.175 104.72C714.879 107.152 715.231 108.928 715.231 110.048C715.231 111.04 714.975 111.808 714.463 112.352C713.887 112.928 713.279 113.216 712.639 113.216C711.935 113.216 711.279 112.912 710.671 112.304C710.095 111.664 709.743 110.832 709.615 109.808C709.455 108.88 709.119 107.696 708.607 106.256C707.711 103.952 707.263 100.96 707.263 97.28C707.263 93.824 707.679 91.68 708.511 90.848C709.055 90.304 709.775 90.032 710.671 90.032C711.279 90.032 711.871 90.176 712.447 90.464C713.119 90.848 714.255 91.888 715.855 93.584C717.583 95.376 718.655 96.272 719.071 96.272C719.583 96.272 720.527 95.616 721.903 94.304C723.311 92.992 724.543 91.6 725.599 90.128C726.943 88.272 728.159 87.04 729.247 86.432Z" fill="black"/>
<path d="M754.365 80.384C755.549 80.128 756.413 80 756.957 80C757.821 80 758.509 80.256 759.021 80.768C759.565 81.28 759.837 81.888 759.837 82.592C759.837 83.168 759.645 83.728 759.261 84.272C758.909 84.784 758.413 85.168 757.773 85.424C757.357 85.616 755.853 85.968 753.261 86.48L749.805 87.104L749.325 89.12C749.037 90.496 748.893 91.488 748.893 92.096C748.893 92.8 749.101 93.152 749.517 93.152C749.677 93.152 750.637 92.944 752.397 92.528C754.157 92.112 755.293 91.904 755.805 91.904C755.965 91.904 756.061 91.92 756.093 91.952C757.373 92.368 758.013 93.248 758.013 94.592C758.013 95.552 757.661 96.304 756.957 96.848C756.253 97.36 754.845 97.888 752.733 98.432C751.037 98.88 749.901 99.216 749.325 99.44C748.781 99.664 748.509 99.92 748.509 100.208C748.509 100.368 748.589 100.56 748.749 100.784C748.973 101.136 749.597 101.312 750.621 101.312C751.293 101.312 751.853 101.296 752.301 101.264C752.525 101.264 752.813 101.264 753.165 101.264C753.517 101.232 753.757 101.216 753.885 101.216C754.589 101.216 755.085 101.28 755.373 101.408C755.693 101.504 756.029 101.728 756.381 102.08C756.989 102.688 757.293 103.392 757.293 104.192C757.293 104.832 757.069 105.424 756.621 105.968C756.365 106.32 755.981 106.576 755.469 106.736C754.957 106.864 754.045 106.992 752.733 107.12C751.773 107.216 750.941 107.264 750.237 107.264C748.029 107.264 746.301 106.592 745.053 105.248C743.453 103.616 742.653 101.168 742.653 97.904C742.653 96.176 742.845 94.048 743.229 91.52C743.485 89.984 743.613 88.864 743.613 88.16C743.613 87.648 743.485 87.216 743.229 86.864C742.877 86.384 742.701 85.808 742.701 85.136C742.701 84.368 742.909 83.76 743.325 83.312C743.805 82.768 745.469 82.208 748.317 81.632C749.917 81.312 751.933 80.896 754.365 80.384Z" fill="black"/>
<path d="M768.01 83.36C769.034 82.688 769.882 82.352 770.554 82.352C770.906 82.352 771.178 82.368 771.37 82.4C773.13 82.656 774.826 83.504 776.458 84.944C777.002 85.424 777.274 86.016 777.274 86.72C777.274 87.488 776.97 88.16 776.362 88.736C775.786 89.312 775.178 89.6 774.538 89.6C774.026 89.6 773.466 89.424 772.858 89.072C772.282 88.72 771.738 88.544 771.226 88.544C770.618 88.544 770.186 88.864 769.93 89.504C769.706 90.112 769.594 90.576 769.594 90.896C769.594 91.504 770.138 92.512 771.226 93.92C772.698 95.84 773.722 97.488 774.298 98.864C774.906 100.24 775.258 101.84 775.354 103.664C775.354 103.824 775.354 104.032 775.354 104.288C775.386 104.544 775.402 104.736 775.402 104.864C775.402 106.272 775.194 107.408 774.778 108.272C774.394 109.136 773.674 110.048 772.618 111.008C771.594 111.904 770.186 112.496 768.394 112.784C767.05 113.008 766.25 113.12 765.994 113.12C765.482 113.12 764.97 112.976 764.458 112.688C762.986 111.888 762.25 110.912 762.25 109.76C762.25 109.152 762.49 108.528 762.97 107.888C763.258 107.504 763.53 107.264 763.786 107.168C764.042 107.04 764.474 106.976 765.082 106.976C765.178 106.976 765.338 106.992 765.562 107.024C765.786 107.024 765.978 107.024 766.138 107.024H766.906C767.642 107.024 768.154 106.976 768.442 106.88C768.73 106.752 769.002 106.512 769.258 106.16C769.642 105.68 769.834 105.072 769.834 104.336C769.834 102.32 768.522 99.664 765.898 96.368C764.426 94.512 763.69 92.784 763.69 91.184C763.69 90.48 763.786 89.744 763.978 88.976C764.618 86.544 765.962 84.672 768.01 83.36Z" fill="black"/>
</g>
<defs>
<filter id="filter0_d_130_361" x="0" y="0" width="781.274" height="123.04" filterUnits="userSpaceOnUse" color-interpolation-filters="sRGB">
<feFlood flood-opacity="0" result="BackgroundImageFix"/>
<feColorMatrix in="SourceAlpha" type="matrix" values="0 0 0 0 0 0 0 0 0 0 0 0 0 0 0 0 0 0 127 0" result="hardAlpha"/>
<feOffset dy="4"/>
<feGaussianBlur stdDeviation="2"/>
<feComposite in2="hardAlpha" operator="out"/>
<feColorMatrix type="matrix" values="0 0 0 0 0 0 0 0 0 0 0 0 0 0 0 0 0 0 0.25 0"/>
<feBlend mode="normal" in2="BackgroundImageFix" result="effect1_dropShadow_130_361"/>
<feBlend mode="normal" in="SourceGraphic" in2="effect1_dropShadow_130_361" result="shape"/>
</filter>
</defs>
</svg>
